<svg xmlns="http://www.w3.org/2000/svg" xmlns:xlink="http://www.w3.org/1999/xlink" viewBox="0 0 1723.6 1143.61"><defs><style>.cls-1{fill:#c5403f;}.cls-2{fill:#3cc5f0;}.cls-3{fill:#172c59;}.cls-4{fill:#f1f2f2;}.cls-5{fill:#7fd3f4;}.cls-6{clip-path:url(#clip-path);}.cls-7{fill:#ea8088;}.cls-8{clip-path:url(#clip-path-2);}.cls-9{fill:#fff;}.cls-10{clip-path:url(#clip-path-3);}.cls-11{clip-path:url(#clip-path-4);}.cls-12{fill:#d1d3d4;}.cls-13{fill:#ff5b5b;}</style><clipPath id="clip-path"><circle class="cls-1" cx="303.73" cy="194.57" r="36.99" transform="translate(23.18 421.29) rotate(-71.59)"/></clipPath><clipPath id="clip-path-2"><circle class="cls-1" cx="417.35" cy="194.57" r="36.99" transform="translate(-15.34 352.1) rotate(-45)"/></clipPath><clipPath id="clip-path-3"><rect class="cls-2" x="237.46" y="329.54" width="246.16" height="345.78" rx="21.38"/></clipPath><clipPath id="clip-path-4"><path class="cls-3" d="M281.49,329.54H434a0,0,0,0,1,0,0v122a76.28,76.28,0,0,1-76.28,76.28h0a76.28,76.28,0,0,1-76.28-76.28v-122A0,0,0,0,1,281.49,329.54Z"/></clipPath></defs><g id="Layer_2" data-name="Layer 2"><g id="_404" data-name="404"><ellipse class="cls-4" cx="360.54" cy="1116.43" rx="281.14" ry="27.18"/><path class="cls-4" d="M946.08,171.94C898,193.82,850.86,218.4,803.66,240.72,669.88,304,529.82,330.4,385,356.23c-114.25,20.38-240.24,53.23-303.92,159.3-68.45,114-3.21,273.58,85,358.26,138,132.35,342.78,161,526.06,144.19,240.21-22.08,506-97.27,705.72-236.06,144-100,198.6-255.54,141.18-422.66-55-160-202-261-371.45-250.55C1089.38,113.55,1016.66,139.84,946.08,171.94Z"/><rect class="cls-1" x="316.01" y="300.11" width="86.53" height="29.43"/><rect class="cls-5" x="233.74" y="125.04" width="253.61" height="175.07" rx="18.09"/><circle class="cls-3" cx="303.73" cy="194.57" r="42.71" transform="translate(6.99 399.65) rotate(-67.29)"/><circle class="cls-1" cx="303.73" cy="194.57" r="36.99" transform="translate(23.18 421.29) rotate(-71.59)"/><g class="cls-6"><rect class="cls-7" x="302.19" y="151.97" width="22.87" height="85.21"/><rect class="cls-7" x="284.7" y="151.97" width="12.58" height="85.21"/></g><circle class="cls-3" cx="417.35" cy="194.57" r="42.71" transform="translate(90.46 518.89) rotate(-69.77)"/><circle class="cls-1" cx="417.35" cy="194.57" r="36.99" transform="translate(-15.34 352.1) rotate(-45)"/><g class="cls-8"><rect class="cls-7" x="394.9" y="151.89" width="19.61" height="91.59"/><rect class="cls-7" x="419.1" y="152.81" width="8.37" height="91.59"/><rect class="cls-7" x="430.6" y="152.89" width="8.37" height="91.59"/></g><rect class="cls-9" x="306.57" y="253.41" width="107.94" height="30.14" rx="5.73"/><rect class="cls-3" x="316.01" y="253.41" width="5.07" height="30.14"/><rect class="cls-3" x="328.01" y="253.41" width="5.07" height="30.14"/><rect class="cls-3" x="340.01" y="253.41" width="5.07" height="30.14"/><rect class="cls-3" x="352.01" y="253.41" width="5.07" height="30.14"/><rect class="cls-3" x="364.01" y="253.41" width="5.07" height="30.14"/><rect class="cls-3" x="376.01" y="253.41" width="5.07" height="30.14"/><rect class="cls-3" x="388.01" y="253.41" width="5.07" height="30.14"/><rect class="cls-3" x="400.01" y="253.41" width="5.07" height="30.14"/><rect class="cls-2" x="283.55" y="106.05" width="153.99" height="18.99"/><rect class="cls-3" x="208.19" y="157.58" width="25.55" height="103.72"/><rect class="cls-3" x="487.34" y="160.72" width="25.55" height="103.72"/><rect class="cls-2" x="237.46" y="329.54" width="246.16" height="345.78" rx="21.38"/><g class="cls-10"><rect class="cls-5" x="223.67" y="611.81" width="273.36" height="89.55"/></g><path class="cls-3" d="M281.49,329.54H434a0,0,0,0,1,0,0v122a76.28,76.28,0,0,1-76.28,76.28h0a76.28,76.28,0,0,1-76.28-76.28v-122A0,0,0,0,1,281.49,329.54Z"/><g class="cls-11"><rect class="cls-12" x="315.07" y="384.65" width="12" height="69.29"/><rect class="cls-12" x="339.07" y="384.65" width="12" height="69.29"/><rect class="cls-12" x="363.08" y="384.65" width="12" height="69.29"/><rect class="cls-12" x="387.08" y="384.65" width="12" height="69.29"/></g><rect class="cls-3" x="266.74" y="675.33" width="39.83" height="315.75"/><rect class="cls-3" x="414.13" y="675.33" width="39.83" height="315.75"/><circle class="cls-2" cx="286.66" cy="819.45" r="35.14" transform="translate(-286.1 167.05) rotate(-22)"/><circle class="cls-2" cx="434.04" cy="823.62" r="35.14" transform="translate(-410.85 432.6) rotate(-37.38)"/><path class="cls-2" d="M306.57,1116.43h-82.9l24.24-109.13a20.7,20.7,0,0,1,20.22-16.22h38.44Z"/><path class="cls-3" d="M306.57,1116.43h-101a38.53,38.53,0,0,1,38.53-38.53h62.43Z"/><rect class="cls-12" x="225.49" y="1100.35" width="14.07" height="16.07"/><rect class="cls-12" x="248.5" y="1100.35" width="14.07" height="16.07"/><rect class="cls-12" x="270.19" y="1100.35" width="14.07" height="16.07"/><path class="cls-2" d="M414.13,1116.43H497L472.79,1007.3a20.7,20.7,0,0,0-20.22-16.22H414.13Z"/><path class="cls-3" d="M414.13,1116.43h101a38.53,38.53,0,0,0-38.53-38.53H414.13Z"/><rect class="cls-12" x="481.14" y="1100.35" width="14.07" height="16.07" transform="translate(976.35 2216.78) rotate(180)"/><rect class="cls-12" x="458.13" y="1100.35" width="14.07" height="16.07" transform="translate(930.33 2216.78) rotate(180)"/><rect class="cls-12" x="436.43" y="1100.35" width="14.07" height="16.07" transform="translate(886.94 2216.78) rotate(180)"/><rect class="cls-12" x="279.26" y="885.41" width="14.79" height="105.67"/><rect class="cls-12" x="426.65" y="885.41" width="14.79" height="105.67"/><rect class="cls-12" x="279.45" y="675.33" width="14.79" height="21.15"/><rect class="cls-12" x="426.84" y="675.33" width="14.79" height="21.15"/><polygon class="cls-3" points="237.46 348.43 208.19 348.43 167.9 348.43 167.9 418.79 167.9 419.29 181.66 419.29 181.66 567.84 194.43 567.03 194.43 419.29 237.46 419.29 237.46 348.43"/><rect class="cls-12" x="181.66" y="394.38" width="12.77" height="24.91"/><circle class="cls-2" cx="187.44" cy="574.49" r="19.54"/><polygon class="cls-3" points="483.62 348.43 512.9 348.43 553.18 348.43 553.18 418.79 553.18 419.29 539.43 419.29 539.43 567.84 526.65 567.03 526.65 419.29 483.62 419.29 483.62 348.43"/><rect class="cls-12" x="526.65" y="394.38" width="12.77" height="24.91" transform="translate(1066.08 813.67) rotate(180)"/><circle class="cls-2" cx="533.65" cy="574.49" r="19.54"/><path class="cls-12" d="M156.5,528.61,525.66,637.17a89.35,89.35,0,0,0,165.7,42.11l-57,1.28a38.33,38.33,0,0,1-38.75-32.49h0a38.34,38.34,0,0,1,36.68-44.16l66.31-2.09a89.34,89.34,0,0,0-156.5-20.52L172.93,472.74A89.35,89.35,0,0,0,7.23,430.62l57-1.28A38.35,38.35,0,0,1,103,461.83h0A38.35,38.35,0,0,1,66.31,506L0,508.08a89.35,89.35,0,0,0,156.5,20.53Z"/><path class="cls-9" d="M197.34,510.27h0A12.23,12.23,0,0,1,212.53,502l262,77a12.23,12.23,0,0,1,8.29,15.19h0a12.23,12.23,0,0,1-15.19,8.29l-262-77A12.25,12.25,0,0,1,197.34,510.27Z"/><path class="cls-3" d="M261.11,465.53h0A19.81,19.81,0,0,0,235,475.71l-19.46,44.34,9.34,4.1-39,44.49a6.38,6.38,0,0,0,.59,9h0a6.37,6.37,0,0,0,9-.59l41.69-47.52L251.83,536l19.46-44.35A19.81,19.81,0,0,0,261.11,465.53Z"/><polygon class="cls-2" points="215.55 520.05 251.83 535.98 256.51 525.3 220.44 508.91 215.55 520.05"/><line class="cls-2" x1="503.07" y1="581.17" x2="489.78" y2="582.87"/><path class="cls-3" d="M521.31,630.75l-32.7,3L485,594.34a16.41,16.41,0,0,1,14.84-17.85h0a16.41,16.41,0,0,1,17.86,14.85Z"/><rect class="cls-2" x="488.1" y="622.61" width="32.84" height="9.66" transform="translate(-55.33 48.83) rotate(-5.25)"/><path class="cls-3" d="M506.31,646.93h0a6.69,6.69,0,0,1-7.27-6l-.73-8,13.31-1.22.73,8A6.68,6.68,0,0,1,506.31,646.93Z"/><rect class="cls-3" x="352.01" y="30.11" width="14.53" height="75.94"/><circle class="cls-1" cx="359.06" cy="22.02" r="22.02"/><circle class="cls-7" cx="364.01" cy="14.97" r="12" transform="translate(266.23 365.92) rotate(-76.79)"/><rect class="cls-7" x="220.96" y="171.39" width="12.78" height="12.78"/><rect class="cls-7" x="220.96" y="192.5" width="12.78" height="12.78"/><rect class="cls-7" x="220.96" y="213.61" width="12.78" height="12.78"/><rect class="cls-7" x="220.96" y="234.72" width="12.78" height="12.78"/><rect class="cls-7" x="487.25" y="174.53" width="12.78" height="12.78"/><rect class="cls-7" x="487.25" y="195.64" width="12.78" height="12.78"/><rect class="cls-7" x="487.25" y="216.75" width="12.78" height="12.78"/><rect class="cls-7" x="487.25" y="237.85" width="12.78" height="12.78"/><polygon class="cls-13" points="563.03 283.55 638.52 182.5 641.16 237.85 725.89 180.92 621.97 291.04 623.31 231.56 563.03 283.55"/><polygon class="cls-13" points="173.57 685.9 33.83 819.45 113.04 794.53 27.99 914.73 202.68 752.45 141.02 758.28 173.57 685.9"/><polygon class="cls-13" points="167.9 311.27 141.61 215.28 121.17 249.64 83.09 183.72 112.81 308.14 134.18 265.43 167.9 311.27"/><polygon class="cls-13" points="505.82 746.62 523.08 809.62 536.48 787.06 561.47 830.33 541.97 748.67 527.95 776.7 505.82 746.62"/><path d="M1173.08,535.22c0,95.81-58.23,146.61-129.27,146.61-73.51,0-125.14-57-125.14-141.24,0-88.39,54.93-146.21,129.27-146.21C1123.93,394.38,1173.08,452.62,1173.08,535.22Zm-216,4.54c0,59.47,32.22,112.75,88.8,112.75,57,0,89.21-52.45,89.21-115.64,0-55.34-28.91-113.16-88.8-113.16C986.82,423.71,957.08,478.64,957.08,539.76Z"/><path d="M1401.05,575.69c0,73.93-51.21,106.14-99.53,106.14-54.1,0-95.82-39.65-95.82-102.84,0-66.9,43.78-106.14,99.12-106.14C1362.23,472.85,1401.05,514.57,1401.05,575.69Zm-158.59,2.07c0,43.77,25.19,76.81,60.71,76.81,34.69,0,60.71-32.62,60.71-77.64,0-33.87-16.93-76.82-59.88-76.82S1242.46,539.76,1242.46,577.76Z"/><path d="M1446.89,542.65c0-25.61-.82-46.26-1.65-65.25h32.63l1.65,34.28h.83c14.87-24.37,38.41-38.83,71-38.83,48.33,0,84.67,40.89,84.67,101.6,0,71.86-43.78,107.38-90.86,107.38-26.43,0-49.56-11.56-61.54-31.39h-.82V759.06h-35.94Zm35.94,53.28a81.58,81.58,0,0,0,1.65,14.87c6.61,25.19,28.5,42.53,54.51,42.53,38.41,0,60.72-31.38,60.72-77.23,0-40.06-21.07-74.34-59.48-74.34-24.78,0-47.9,17.76-54.93,45-1.23,4.54-2.47,9.91-2.47,14.87Z"/><path d="M1674.87,656.23c0-14.87,10.32-25.61,24.36-25.61,14.87,0,24.37,10.74,24.37,25.61,0,14.45-9.5,25.6-24.37,25.6C1684.78,681.83,1674.87,670.68,1674.87,656.23Zm10.32-59.06-5.78-198.24h39.65l-5.79,198.24Z"/><path d="M999.51,834.38a103.8,103.8,0,0,1,17.18-1.34c8.85,0,15.33,2.06,19.45,5.76,3.8,3.3,6.07,8.34,6.07,14.51s-1.85,11.21-5.35,14.81c-4.73,5-12.45,7.62-21.19,7.62a31.1,31.1,0,0,1-7.21-.62v27.77h-9Zm9,33.43a29.82,29.82,0,0,0,7.41.72c10.8,0,17.39-5.24,17.39-14.81,0-9.15-6.48-13.58-16.36-13.58a37.74,37.74,0,0,0-8.44.72Z"/><path d="M1078.83,902.89l-.72-6.27h-.31a18.55,18.55,0,0,1-15.22,7.41c-10.09,0-15.23-7.1-15.23-14.3,0-12,10.7-18.62,29.94-18.52v-1c0-4.11-1.14-11.52-11.32-11.52a24.83,24.83,0,0,0-13,3.7l-2.06-6a30.87,30.87,0,0,1,16.36-4.43c15.22,0,18.93,10.39,18.93,20.37V891a69.77,69.77,0,0,0,.82,11.93Zm-1.34-25.4c-9.87-.21-21.09,1.54-21.09,11.21,0,5.86,3.91,8.64,8.54,8.64a12.4,12.4,0,0,0,12-8.33,9.45,9.45,0,0,0,.51-2.88Z"/><path d="M1143.74,853.1c-.21,3.6-.41,7.62-.41,13.69v28.9c0,11.42-2.26,18.42-7.1,22.74-4.83,4.52-11.83,6-18.1,6-6,0-12.56-1.45-16.57-4.12l2.27-6.89a28.12,28.12,0,0,0,14.6,3.91c9.26,0,16-4.84,16-17.39v-5.55h-.2c-2.78,4.63-8.13,8.33-15.85,8.33-12.34,0-21.19-10.49-21.19-24.28,0-16.87,11-26.44,22.43-26.44,8.64,0,13.37,4.53,15.53,8.64h.21l.41-7.51Zm-9.36,19.65a12.9,12.9,0,0,0-.51-4.11c-1.65-5.25-6.07-9.57-12.66-9.57-8.64,0-14.81,7.3-14.81,18.83,0,9.77,4.94,17.9,14.71,17.9a13.25,13.25,0,0,0,12.55-9.26,15.91,15.91,0,0,0,.72-4.84Z"/><path d="M1163.39,879.65c.2,12.24,8,17.28,17.07,17.28a32.79,32.79,0,0,0,13.79-2.57l1.54,6.48c-3.19,1.44-8.64,3.08-16.56,3.08-15.33,0-24.48-10.08-24.48-25.1S1163.59,852,1178.1,852c16.25,0,20.57,14.3,20.57,23.46a32.86,32.86,0,0,1-.31,4.22Zm26.54-6.49c.1-5.76-2.37-14.71-12.55-14.71-9.16,0-13.17,8.44-13.89,14.71Z"/><path d="M1231.69,866.58c0-5.14-.1-9.36-.41-13.48h8l.52,8.23h.2a18.31,18.31,0,0,1,16.46-9.36c6.9,0,17.59,4.12,17.59,21.19v29.73h-9v-28.7c0-8-3-14.71-11.52-14.71a12.86,12.86,0,0,0-12.14,9.26,13.07,13.07,0,0,0-.62,4.22v29.93h-9Z"/><path d="M1333.84,877.59c0,18.41-12.76,26.44-24.79,26.44-13.48,0-23.87-9.88-23.87-25.62,0-16.66,10.91-26.44,24.69-26.44C1324.17,852,1333.84,862.36,1333.84,877.59Zm-39.5.51c0,10.91,6.27,19.14,15.12,19.14,8.64,0,15.12-8.13,15.12-19.34,0-8.44-4.21-19.14-14.91-19.14S1294.34,868.64,1294.34,878.1Z"/><path d="M1356.16,838.8v14.3h13V860h-13v26.85c0,6.17,1.75,9.67,6.79,9.67a20.05,20.05,0,0,0,5.25-.62l.41,6.79a22.19,22.19,0,0,1-8,1.23c-4.22,0-7.62-1.33-9.78-3.8-2.57-2.68-3.49-7.1-3.49-13V860h-7.72v-6.9h7.72V841.17Z"/><path d="M1402,902.89V860h-7v-6.9h7v-2.36c0-7,1.54-13.38,5.76-17.39a17.34,17.34,0,0,1,12.14-4.63,21,21,0,0,1,7.72,1.44l-1.24,7a13.49,13.49,0,0,0-5.76-1.13c-7.71,0-9.67,6.79-9.67,14.4v2.67h12V860h-12v42.89Z"/><path d="M1474.88,877.59c0,18.41-12.76,26.44-24.8,26.44-13.47,0-23.86-9.88-23.86-25.62,0-16.66,10.9-26.44,24.69-26.44C1465.21,852,1474.88,862.36,1474.88,877.59Zm-39.51.51c0,10.91,6.28,19.14,15.13,19.14,8.64,0,15.12-8.13,15.12-19.34,0-8.44-4.22-19.14-14.92-19.14S1435.37,868.64,1435.37,878.1Z"/><path d="M1528,889.31c0,5.15.1,9.68.41,13.58h-8l-.51-8.12h-.21a18.73,18.73,0,0,1-16.46,9.26c-7.81,0-17.18-4.32-17.18-21.81V853.1H1495v27.57c0,9.47,2.88,15.85,11.11,15.85a13.09,13.09,0,0,0,11.93-8.23,13.38,13.38,0,0,0,.82-4.63V853.1H1528Z"/><path d="M1543,866.58c0-5.14-.1-9.36-.41-13.48h8l.51,8.23h.21a18.31,18.31,0,0,1,16.46-9.36c6.89,0,17.59,4.12,17.59,21.19v29.73h-9.06v-28.7c0-8-3-14.71-11.52-14.71a12.88,12.88,0,0,0-12.14,9.26A13.09,13.09,0,0,0,1552,873v29.93H1543Z"/><path d="M1643.07,829.85V890c0,4.42.1,9.46.41,12.85h-8.13l-.41-8.64h-.21c-2.77,5.56-8.84,9.78-17,9.78-12,0-21.29-10.19-21.29-25.31-.11-16.56,10.18-26.75,22.32-26.75,7.61,0,12.75,3.6,15,7.62h.2V829.85ZM1634,873.37a16,16,0,0,0-.41-3.81,13.3,13.3,0,0,0-13.06-10.49c-9.36,0-14.92,8.23-14.92,19.24,0,10.08,4.94,18.41,14.71,18.41a13.6,13.6,0,0,0,13.27-10.8A15.65,15.65,0,0,0,1634,882Z"/></g></g></svg>