<svg xmlns="http://www.w3.org/2000/svg" viewBox="0 0 413.3 439.05"><defs><style>.cls-1{fill:#e0e0e0;}.cls-2{fill:#f5f5f5;}.cls-3{fill:#ebebeb;}.cls-4{fill:#fafafa;}.cls-5{fill:#fff;}.cls-6{fill:#455a64;}.cls-7{fill:#263238;}.cls-8{fill:#ffbf9d;}.cls-9{fill:#ff9a6c;}.cls-10{fill:#ff5b5b;}.cls-11{opacity:0.3;}</style></defs><g id="Layer_2" data-name="Layer 2"><g id="Layer_1-2" data-name="Layer 1"><path class="cls-1" d="M395.28,192v-3.43c0-2.22,0-5.42-.08-9.44l.15.15-48.65.09.25-.24h0V192l-.24-.25,34.67.11,10.23.07h.12l-10.28.23-34.84.11h-.24V179.11h0l.25-.25,48.65.09h.18v.16c0,4.06-.06,7.29-.08,9.53v3.13A.72.72,0,0,1,395.28,192Z"/><path class="cls-2" d="M216,394.73l-11,4.73.74-65.25c.34-7.81-3.25-11.14-5.2-13.36-17.71-20.14-44.12-5.53-44.35,14.88L155.53,394l-10.71-.12,1.06-61c.08-6.87,5.42-18.79,10.81-23.06,29.8-23.61,60.29.78,60,26.58Z"/><path class="cls-1" d="M216,394.73v-4.55c0-3,.06-7.35.1-13s.11-12.5.18-20.49q.06-6,.12-12.77c0-4.52.41-9.33-.52-14.27a34.72,34.72,0,0,0-6.13-14.31c-.41-.55-.8-1.11-1.23-1.65s-.92-1-1.38-1.55a36.33,36.33,0,0,0-3-2.95c-.51-.49-1.11-.88-1.67-1.33a13.59,13.59,0,0,0-1.74-1.27,35.31,35.31,0,0,0-3.78-2.18,36.43,36.43,0,0,0-8.42-3l-2.26-.37-1.13-.19-1.15-.07-2.32-.15c-.78,0-1.56.05-2.34.08a35.28,35.28,0,0,0-30.81,21.44,37.76,37.76,0,0,0-2.62,10.11c-.3,3.5-.22,7.11-.29,10.72-.16,14.47-.33,29.45-.5,44.8q0,3.08-.07,6.12l-.25-.26,10.71.12-.25.25q.19-17.4.39-34,.09-8.25.19-16.29,0-4,.09-8a27.59,27.59,0,0,1,1.3-7.74,25.21,25.21,0,0,1,8.86-12.19,18.2,18.2,0,0,1,1.53-1.07l1.6-1a25.89,25.89,0,0,1,3.37-1.48,26.53,26.53,0,0,1,3.51-1c.59-.13,1.19-.18,1.78-.28l.89-.12h.9a25.32,25.32,0,0,1,7,.59,26.85,26.85,0,0,1,6.42,2.45,25.54,25.54,0,0,1,12,14.81,26,26,0,0,1,1,6,14.74,14.74,0,0,0,0,1.49,14.41,14.41,0,0,1,0,1.47v2.9c0,1.91,0,3.79-.07,5.63-.1,7.36-.18,14.12-.26,20.22-.17,12.19-.3,21.73-.39,28.07l-.07-.07,8.08.13h0l-8.12-.05h-.07v-.07c0-6.34.14-15.88.25-28.07.06-6.1.13-12.87.2-20.23,0-1.84,0-3.72.06-5.63v-4.36l-.06-1.47a23.65,23.65,0,0,0-3.53-11.57,24.92,24.92,0,0,0-9.27-8.91,26.76,26.76,0,0,0-6.31-2.4,25.47,25.47,0,0,0-6.91-.56h-.88l-.87.13c-.59.09-1.18.14-1.76.27a27,27,0,0,0-6.75,2.43l-1.57.94a17,17,0,0,0-1.5,1,24.71,24.71,0,0,0-8.69,12,26.53,26.53,0,0,0-1.26,7.6q0,3.94-.09,7.95-.09,8-.18,16.29c-.12,11-.25,22.37-.38,34v.25h-.25L144.79,394h-.25v-.25q0-3,.07-6.12c.18-15.34.35-30.32.52-44.8.07-3.62,0-7.19.29-10.77a38.28,38.28,0,0,1,2.67-10.24A35.94,35.94,0,0,1,161,306.32a35.55,35.55,0,0,1,18.32-6.08c.79,0,1.58-.09,2.37-.07l2.69.16,1.48.17,2.24.37,1,.22a35.08,35.08,0,0,1,8,2.94,33.94,33.94,0,0,1,3.83,2.21c.63.37,1.17.87,1.75,1.29a18.19,18.19,0,0,1,1.7,1.34,36.92,36.92,0,0,1,3,3l1.4,1.57c.43.55.82,1.12,1.23,1.68a35,35,0,0,1,6.17,14.47c.93,5,.46,9.84.49,14.36s-.12,8.82-.17,12.82c-.11,8-.21,14.88-.29,20.51s-.14,10-.19,12.94c0,1.46,0,2.59-.06,3.35A3.1,3.1,0,0,0,216,394.73Z"/><path class="cls-1" d="M132.59,355.84l97,1.1a3.73,3.73,0,0,1,3.7,3.78l-.85,75A3.39,3.39,0,0,1,229,439l-97.29-1.1h0l.93-82.1Z"/><path class="cls-3" d="M132.59,355.63l85.3.85a4.06,4.06,0,0,1,4,4.1l-.73,73a5,5,0,0,1-5.05,4.95l-84.22-.84a4.21,4.21,0,0,1-4.16-4.24h0l.74-73.8A4.05,4.05,0,0,1,132.59,355.63Z"/><path class="cls-1" d="M187.3,390.26A11.46,11.46,0,0,0,176,378.68h-.36a11.59,11.59,0,0,0-11.23,11.23,11.4,11.4,0,0,0,8.2,11.16l-7.65,15.72,19.75.59-5.84-16.27A11.42,11.42,0,0,0,187.3,390.26Z"/><path class="cls-4" d="M220.63,431.2c-.14,0,0-14.29.25-31.91s.61-31.92.75-31.92,0,14.29-.25,31.92S220.77,431.21,220.63,431.2Z"/><path class="cls-5" d="M199.79,359.11c0,.14-12.57.28-28.08.31s-28.09-.06-28.09-.2,12.57-.27,28.09-.3S199.79,359,199.79,359.11Z"/><path class="cls-5" d="M164,396.17a2.49,2.49,0,0,1-.47-.72,11.11,11.11,0,0,1-.86-2.18,12.85,12.85,0,0,1,4.7-13.84,11.57,11.57,0,0,1,2-1.21,2.82,2.82,0,0,1,.8-.28,27.61,27.61,0,0,0-2.59,1.77A13.19,13.19,0,0,0,163,393.18C163.45,395.11,164,396.11,164,396.17Z"/><path class="cls-5" d="M168.45,401.65c-.07.12-.74-.17-1.5-.64s-1.31-.95-1.24-1.07.75.17,1.51.64A3.32,3.32,0,0,1,168.45,401.65Z"/><path class="cls-5" d="M178,303.28a14,14,0,0,1-1.93.25,34.85,34.85,0,0,0-5.16,1.11,31.4,31.4,0,0,0-22.26,30v1.94a1.69,1.69,0,0,1-.08-.5c0-.33-.1-.81-.11-1.44a27.9,27.9,0,0,1,.3-5.32,30.37,30.37,0,0,1,22.06-25,28.35,28.35,0,0,1,5.24-1c.62-.07,1.11-.06,1.44-.07A4.19,4.19,0,0,1,178,303.28Z"/><path class="cls-5" d="M148.09,345.43a18.5,18.5,0,0,1,.13-6A17.52,17.52,0,0,1,148.09,345.43Z"/><rect class="cls-2" x="161.07" y="66.88" width="48.65" height="12.87"/><path class="cls-1" d="M189.15,93.31V89.88c0-2.22,0-5.41-.08-9.44l.15.15-48.65.1.25-.25h0V93.29l-.24-.24,34.67.11,10.23.07h.12l-10.18.07-34.84.11h-.24V80.32h0l.25-.25,48.65.1h.15v.15c0,4.06-.06,7.29-.08,9.53V93A.54.54,0,0,1,189.15,93.31Z"/><rect class="cls-2" x="336.01" y="289.14" width="48.65" height="12.87"/><path class="cls-1" d="M364.09,315.57a1,1,0,0,1,0-.24v-3.19c0-2.22,0-5.41-.08-9.44l.15.15-48.65.1c.11-.11-.25.24.24-.25h0v12.85l-.24-.24,34.67.11,10.23.07h.12l-10.18.07-34.9.25h-.25V302.72h0l.25-.25,48.65.1h.15v.15c0,4.06-.06,7.29-.08,9.53v3.13A1.08,1.08,0,0,1,364.09,315.57Z"/><path class="cls-1" d="M65.71,46.72a.88.88,0,0,1,0-.23v-3.2c0-2.22,0-5.41-.08-9.44l.15.15-48.72.11c.11-.11-.25.25.24-.25h0V46.72l-.24-.24,34.67.11L62,46.66h3.75a.89.89,0,0,1-.23,0H62.07l-10.17.07-34.84.11h-.25v-13h0l.25-.25,48.65.1h.15v.15c0,4.07-.06,7.29-.08,9.53v3.14A.75.75,0,0,1,65.71,46.72Z"/><path class="cls-1" d="M355.81,28.24V24.81c0-2.22,0-5.42-.08-9.44l.15.15-48.65.09.25-.24h0V28.24l-.24-.24,34.67.11,10.23.06h.12l-10.18.07-34.84.11H307v-13h0l.25-.25,48.65.1h.15v.15c0,4.06-.06,7.29-.08,9.53v3.13A.6.6,0,0,1,355.81,28.24Z"/><path class="cls-1" d="M362.45,15.37a1,1,0,0,1,0-.25V11.86c0-2.26-.06-5.44-.1-9.36l.18.17-29.23.07.24-.24h0V15.35l-.23-.24,20.91.11,6.09.07h2.23a2.35,2.35,0,0,1-.53,0h-1.6l-6,.06-21.07.11h-.24V2.52h0c-.06,0,.47-.47.25-.25l29.23.07h.18v.18c0,4-.08,7.18-.1,9.47v2.54C362.66,15.16,362.45,15.38,362.45,15.37Z"/><path class="cls-1" d="M48.81,335.11v-3.42c0-2.22,0-5.42-.08-9.45l.15.15-48.65.1.25-.25h0V335.1l-.24-.24,34.67.11,10.23.07h.12l-10.18.07-34.84.11H0v-13H0L.25,322l48.65.09h.15v.15c0,4.07-.06,7.29-.08,9.54v3.13C48.82,335.11,48.82,335.11,48.81,335.11Z"/><path class="cls-1" d="M55.45,322.26a1,1,0,0,1,0-.24v-3.26c0-2.26-.06-5.45-.1-9.37l.18.18-29.23.07c-.22.22.3-.3.24-.25h0v12.86l-.23-.23,20.91.11,6.09.07h2.23a2.35,2.35,0,0,1-.53,0h-1.6l-6,.07-21.07.11H26.1v-13.1h0l.25-.25,29.1.18h.18v.18c0,4-.08,7.19-.1,9.47v2.55A2.72,2.72,0,0,1,55.45,322.26Z"/><path class="cls-1" d="M202,229.3a.88.88,0,0,1,0-.23v-3.19c0-2.23,0-5.42-.08-9.45l.15.15-48.65.1c.11-.11-.25.25.24-.25h0v12.85l-.24-.24,34.67.11,10.23.07h.11l-10.17.06-34.84.11h-.25v-13.1h0l.25-.25,48.65.1h.15v.15c0,4.07-.06,7.29-.08,9.54V229A1.28,1.28,0,0,1,202,229.3Z"/><path class="cls-1" d="M208.61,216.43a1,1,0,0,1,0-.24v-.69l-.05-2.58c0-2.25,0-5.44-.09-9.36l.18.18-29.24.07.25-.25h0v12.86l-.24-.23,20.91.11,6.1.06h2.23a2.44,2.44,0,0,1-.54,0h-1.59l-6,.07-21.07.11h-.23v-13.1h0c0,.05.48-.47.25-.25l29.24.07h.18v.18c0,4-.07,7.19-.09,9.47,0,1.07,0,1.92-.05,2.54A4.56,4.56,0,0,1,208.61,216.43Z"/><path class="cls-6" d="M21.87,383.71l-18,24.4,30.26,22.52c2-3-9.37-20.48-9.37-20.48L37,395Z"/><path class="cls-5" d="M16.45,401.89a1.54,1.54,0,0,0-1.9.77,1.49,1.49,0,0,0,.75,1.9,1.61,1.61,0,0,0,2-.83,1.54,1.54,0,0,0-1-1.89"/><path class="cls-7" d="M3.86,408.17l1.91-2.62L34,428.31s.9,1.6,0,2.43Z"/><path class="cls-7" d="M25.45,410.37c-.11.15-.9-.33-2-.4s-1.93.27-2,.11.77-.85,2.07-.75S25.53,410.26,25.45,410.37Z"/><path class="cls-7" d="M27.6,414.05c-.08.17-.9-.06-1.87.19s-1.6.81-1.75.69.39-1,1.6-1.31S27.7,413.91,27.6,414.05Z"/><path class="cls-7" d="M26.57,419.19c-.16-.07.19-1,1.17-1.49s1.91-.33,1.88-.16-.78.28-1.57.73S26.73,419.28,26.57,419.19Z"/><path class="cls-7" d="M27.79,406.61c-.17.09-.69-.62-1.57-1.18s-1.72-.79-1.71-1,1-.25,2.06.43S28,406.55,27.79,406.61Z"/><path class="cls-7" d="M95,281.57c.54,3.06,1.4,29.09,2,42.82s-.82,20.48-2.39,23.56S33.81,394.66,29.3,405.11L14.3,393s22-39.49,31.38-46.67,27.43-13.77,27.43-13.77L68,257.39l24.59-1.34Z"/><path class="cls-6" d="M40,407.84l-.26,30.27,37.71.52c-.17-3.6-19.58-11.11-19.58-11.11l1-19.41Z"/><path class="cls-5" d="M46.23,425.77a1.55,1.55,0,0,0-1.09,1.74,1.48,1.48,0,0,0,1.72,1.1A1.62,1.62,0,0,0,48,426.76a1.54,1.54,0,0,0-1.91-.94"/><path class="cls-7" d="M39.73,438.22V435L76,436.85s1.66.77,1.45,1.95Z"/><path class="cls-7" d="M58.45,427.38c0,.19-.93.26-1.84.84s-1.41,1.34-1.58,1.27.12-1.14,1.24-1.82S58.53,427.21,58.45,427.38Z"/><path class="cls-7" d="M62.45,429.11c0,.18-.77.48-1.4,1.25s-.83,1.6-1,1.58-.29-1.05.52-2S62.45,428.9,62.45,429.11Z"/><path class="cls-7" d="M64.6,433.84c-.17,0-.41-.89.07-1.89s1.36-1.39,1.43-1.24-.46.69-.85,1.52S64.78,433.82,64.6,433.84Z"/><path class="cls-7" d="M58.21,422.93c-.08.17-.92-.1-2,0s-1.86.37-2,.21.69-.8,1.92-.85S58.3,422.79,58.21,422.93Z"/><path class="cls-7" d="M97.75,252.94c0,1.77,2.87,46.58-11.78,79,0,0-5.07,10.14-6,14.57s-19.88,77.91-19.88,77.91l-21.9-.8s-3.5-36.81,0-58.12,10-18.81,10-32.57-3.27-42.29-3.27-42.29-4.78-7.79-6.41-22.9C37.18,255.47,43,242.32,43,242.32l5.71-10.11L97,229.68Z"/><path class="cls-6" d="M97.75,252.94v-1.53c0-1-.06-2.51-.1-4.48-.09-4-.24-9.77-.42-17.29v-.11h-.12L48.8,232h-.1l-.06.09c-1.77,3.14-3.72,6.57-5.72,10.11h0a64.61,64.61,0,0,0-3.47,11.1,49.52,49.52,0,0,0-1.21,12.19,74.5,74.5,0,0,0,2,12.69,51.58,51.58,0,0,0,4.63,12.57v-.1c.83,7.46,1.6,15.19,2.25,23.15.32,4,.6,8,.8,12.11.1,2,.18,4.1.19,6.17,0,1,0,2.07-.06,3.1a28.47,28.47,0,0,1-.38,3.08,20,20,0,0,1-2.15,5.86c-1,1.87-2,3.72-3,5.67a53.59,53.59,0,0,0-3.93,12.4c-1.74,8.6-2.09,17.54-2.19,26.55,0,11.89.56,23.57,1.54,34.86v.24h.23l21.9.8h.21l0-.21c6.35-24.61,12.27-47.61,17.49-68.29l1.89-7.65c.33-1.27.54-2.53.93-3.73s.83-2.39,1.29-3.55c.94-2.32,2-4.57,3-6.76l.78-1.63a16.11,16.11,0,0,0,.74-1.64c.45-1.11.9-2.2,1.35-3.29A132.79,132.79,0,0,0,94.71,303,216.52,216.52,0,0,0,98,266.21c.06-8.62-.29-13.3-.29-13.3v.86c0,.57,0,1.44.06,2.56.06,2.25.1,5.57,0,9.88a222.52,222.52,0,0,1-3.33,36.71,132.15,132.15,0,0,1-7,24.84L86.11,331c-.22.56-.47,1.09-.74,1.63s-.53,1.09-.79,1.64c-1,2.19-2.06,4.44-3,6.77-.47,1.17-.92,2.36-1.31,3.58s-.62,2.51-.94,3.75c-.63,2.52-1.26,5.06-1.91,7.65-5.31,20.66-11.22,43.66-17.55,68.27l.26-.19-21.9-.81.26.24c-1-11.27-1.58-22.94-1.54-34.81.1-9,.45-17.9,2.18-26.44A53.75,53.75,0,0,1,43,350c.9-1.93,2-3.76,3-5.66a20.94,20.94,0,0,0,2.12-6,27.65,27.65,0,0,0,.39-3.15c0-1,.1-2.1.06-3.13,0-2.08-.09-4.15-.19-6.2-.2-4.1-.49-8.14-.82-12.12q-1-12-2.27-23.17h0v-.06a51,51,0,0,1-4.65-12.42,75.48,75.48,0,0,1-2-12.6,49.1,49.1,0,0,1,1.18-12.08,66.28,66.28,0,0,1,3.39-11h0l5.7-10.12-.16.1,48.31-2.61-.13-.11c.24,7.51.42,13.33.54,17.28.07,2,.12,3.46.16,4.48S97.75,252.94,97.75,252.94Z"/><path class="cls-6" d="M82,161.18s-13-2.3-11.79,14.43c.76,10,3.7,27.16,5.33,38.11.56,3.79,1.8,10.57,6.81,14.55l35.9,24.84,11.33-13.55L97.56,209l-5-30.2Z"/><path class="cls-7" d="M83.57,100.88a16.47,16.47,0,0,1,6.1,13.92c-.2,2.56-.91,5.47.76,7.42s4.87,1.88,6.45,3.86c1.85,2.34.3,5.82,1,8.73a5.92,5.92,0,0,0,6.29,4.39,23,23,0,0,1-11.44,5l-3.28-4.09c1.22,1.44.89,3.73-.28,5.2a9.61,9.61,0,0,1-4.72,2.8,29.26,29.26,0,0,1-25.65-4.17"/><path class="cls-7" d="M35.54,123.45c.64-2,1.72-3.77,2.15-5.78.92-4.33-1.19-9.21.91-13.11,1.5-2.77,4.68-4.13,7.7-5.06s6.24-1.71,8.49-3.92C56.43,94,57.37,91.72,59,90.1c2.34-2.32,5.8-3.11,9.08-3.31A19.83,19.83,0,0,1,78,88.4,10.83,10.83,0,0,1,84.1,96c.26,1.62.06,3.33.58,4.9s1.91,3.06,2.75,4.67A8.67,8.67,0,0,1,85.26,116L62.08,145.94c-4.87,1.84-16.67-.38-20.43-4S33.93,128.4,35.54,123.45Z"/><path class="cls-8" d="M84.65,112.2c-1-6.8-6.13-14.83-12.88-13.59l-20.84,7c-2,.38-.58,3.73-.38,5.8l4.53,47s-2.82,2-3.82,1.62a.29.29,0,0,0-.37.18.27.27,0,0,0,0,.25c2.53,3.65,14.32,19.52,26.53,14.65,2.72-1.09-.29-9.66,0-12.83l-.36-8.11c-.27-4.14-.4-5.84-.4-5.8s8.62-2.12,9.55-13.65C86.71,129,85.71,119.75,84.65,112.2Z"/><path class="cls-7" d="M83.2,122.66a1.46,1.46,0,0,1-1.3,1.58,1.39,1.39,0,0,1-1.6-1.16v0a1.47,1.47,0,0,1,1.3-1.58,1.4,1.4,0,0,1,1.6,1.16Z"/><path class="cls-7" d="M69,123.55a1.45,1.45,0,0,1-1.29,1.58A1.41,1.41,0,0,1,66.1,124v0a1.47,1.47,0,0,1,1.3-1.58A1.39,1.39,0,0,1,69,123.51Z"/><path class="cls-7" d="M83.72,117.84c-.16.27-1.52-.59-3.22-.34s-2.79,1.41-3,1.2,0-.56.49-1.09a3.91,3.91,0,0,1,5-.69C83.55,117.31,83.8,117.72,83.72,117.84Z"/><path class="cls-7" d="M68.45,119.11c-.2.25-1.53-.72-3.36-.64s-3.13,1.11-3.34.88.09-.54.66-1a4.49,4.49,0,0,1,2.65-1,4.39,4.39,0,0,1,2.7.81C68.33,118.57,68.54,119,68.45,119.11Z"/><path class="cls-7" d="M74.18,129.88a10,10,0,0,1,2.52-.66c.39-.07.77-.18.81-.46a2,2,0,0,0-.36-1.17c-.45-.94-.92-1.93-1.42-3-2-4.23-3.45-7.71-3.28-7.79s1.92,3.28,3.9,7.5c.48,1,.94,2,1.37,3a2.32,2.32,0,0,1,.33,1.56,1,1,0,0,1-.61.64,2.23,2.23,0,0,1-.67.14A10.25,10.25,0,0,1,74.18,129.88Z"/><path class="cls-9" d="M76.69,148.39a29,29,0,0,1-15.56-2.9s4.45,7.7,15.76,5.76Z"/><path class="cls-9" d="M69.39,134.46a2.67,2.67,0,0,1,.8-1,2.06,2.06,0,0,1,1.36-.13,3.17,3.17,0,0,1,1.78.9,1.91,1.91,0,0,1,.45,1.88h0c-.18.66-1.16,1-1.83,1.14a2.94,2.94,0,0,1-2-.41,1.74,1.74,0,0,1-1-1.3A2.18,2.18,0,0,1,69.39,134.46Z"/><path class="cls-7" d="M69.71,132.25c.25,0,.39,1.67,1.94,2.77s3.35.77,3.38,1-.37.36-1.14.44a4.17,4.17,0,0,1-2.82-.75,3.65,3.65,0,0,1-1.52-2.33C69.45,132.69,69.59,132.25,69.71,132.25Z"/><path class="cls-7" d="M68.31,113c-.13.43-1.71.35-3.54.72s-3.28,1-3.55.61c-.12-.17.1-.59.67-1.05a6.24,6.24,0,0,1,5.4-1C68,112.44,68.36,112.75,68.31,113Z"/><path class="cls-7" d="M82.75,112.11c-.29.38-1.55.11-3,.21s-2.73.45-3,.1c-.14-.17,0-.55.55-.93a4.75,4.75,0,0,1,2.43-.77,4.64,4.64,0,0,1,2.48.53C82.68,111.55,82.88,111.91,82.75,112.11Z"/><path class="cls-7" d="M46.32,107.25c1-1.62,2.94-2.45,4.74-3.14A105.27,105.27,0,0,1,75.2,98c1,1.69.08,4-1.47,5.23s-3.55,1.72-5.4,2.41-3.76,1.77-4.53,3.6-.12,4.24-.84,6.22c-1.23,3.42-6,4.52-7.19,7.93-.92,2.59.58,5.34,1,8.06a9.8,9.8,0,0,1-8.36,11.06,8.79,8.79,0,0,1-1.26.09q-.84-14.68-1.69-29.36C45.29,111.16,45.21,109,46.32,107.25Z"/><path class="cls-7" d="M26.6,132c1.55-1.39,3.49-2.59,4.1-4.57.9-2.89-1.42-6.28.08-8.91,1.36-2.4,5.37-2.27,6.64-4.72,1-1.92-.15-3.61.22-5.29s2.77-3.15,4.47-2.95l13.34,19.37c1.24,6.5,2.49,10,1.1,13.76A30.76,30.76,0,0,0,54.48,145c-.3,2.2.27,4.69,2.06,6-8,.63-15.48-3.55-22.4-7.6l-7.29-4.28a5.17,5.17,0,0,1-2-1.68C23.76,135.65,25.06,133.36,26.6,132Z"/><path class="cls-6" d="M34,141.42a3.64,3.64,0,0,0,.86.17,7.45,7.45,0,0,0,2.49-.18,7.47,7.47,0,0,0,5.75-6.54,7.77,7.77,0,0,0-.26-3.07,12.89,12.89,0,0,0-1.48-3,11.37,11.37,0,0,1-1.53-3.08,4,4,0,0,1,.43-3.39c.72-1,2.07-1.21,3.33-1.71a3.25,3.25,0,0,0,2.25-3.36,22.89,22.89,0,0,0-.91-4.16,4.5,4.5,0,0,1,0-2,2.89,2.89,0,0,1,1.15-1.63,8.16,8.16,0,0,1,4-1.08,8.47,8.47,0,0,0,4.12-1.21A7.66,7.66,0,0,0,57,104.11a12.59,12.59,0,0,0,1-3.83,18.66,18.66,0,0,1,.78-3.6,8.25,8.25,0,0,1,1.88-2.83,9.13,9.13,0,0,1,10.53-1.5,11.21,11.21,0,0,1,3.08,2.34,14.66,14.66,0,0,1,1.9,2.73.54.54,0,0,0-.07-.21c-.08-.19-.18-.39-.28-.58a10.67,10.67,0,0,0-1.39-2,11.34,11.34,0,0,0-3.1-2.45A9.39,9.39,0,0,0,66.26,91a9.52,9.52,0,0,0-5.81,2.55,8.54,8.54,0,0,0-2,3,18.7,18.7,0,0,0-.82,3.67,12.45,12.45,0,0,1-1,3.7A7.28,7.28,0,0,1,54,106.82,8.21,8.21,0,0,1,50.05,108a8.49,8.49,0,0,0-4.28,1.16A3.31,3.31,0,0,0,44.45,111a4.75,4.75,0,0,0,0,2.25,23.78,23.78,0,0,1,.9,4.08,3.08,3.08,0,0,1-.46,1.83,3.27,3.27,0,0,1-1.51,1.11c-.59.25-1.23.42-1.85.68a4,4,0,0,0-1.65,1.19,4.42,4.42,0,0,0-.48,3.76,11.73,11.73,0,0,0,1.6,3.18,12,12,0,0,1,1.45,2.86,7.6,7.6,0,0,1,.28,2.92,7.29,7.29,0,0,1-5.48,6.4A8.24,8.24,0,0,1,34,141.42Z"/><path class="cls-7" d="M23.31,127.65a1.74,1.74,0,0,0-.26.65,2.9,2.9,0,0,0,.34,2,3,3,0,0,0,1,1.07,3.06,3.06,0,0,0,1.71.46,4,4,0,0,0,3.5-2.23,5.23,5.23,0,0,0,.57-2.43,7.3,7.3,0,0,0-.56-2.64c-.63-1.73-1.79-3.42-1.81-5.44a3.72,3.72,0,0,1,.93-2.75,4.05,4.05,0,0,1,2.9-.9,9.62,9.62,0,0,0,3.46-.36,2.92,2.92,0,0,0,1.42-1.2,4.32,4.32,0,0,0,.59-1.76,13.75,13.75,0,0,0-.29-3.56,7.63,7.63,0,0,1,.19-3.29,8.3,8.3,0,0,1,3.71-4.88,12,12,0,0,1,5.57-1.28,15.8,15.8,0,0,0,5.06-.8,10.69,10.69,0,0,0,5.58-4.72,7.31,7.31,0,0,0,.95-2.53,15,15,0,0,1-1.11,2.44,10.67,10.67,0,0,1-5.5,4.56,16.31,16.31,0,0,1-5,.72,12.15,12.15,0,0,0-5.74,1.28,8.68,8.68,0,0,0-3.94,5,8.15,8.15,0,0,0-.21,3.47,14.77,14.77,0,0,1,.29,3.44,3,3,0,0,1-1.73,2.59,9.14,9.14,0,0,1-3.29.33,4.45,4.45,0,0,0-3.21,1,4.12,4.12,0,0,0-1,3.07,7.78,7.78,0,0,0,.73,3c.39.9.82,1.74,1.15,2.58a7,7,0,0,1,.56,2.51,5.13,5.13,0,0,1-.5,2.28,3.7,3.7,0,0,1-3.21,2.12,2.94,2.94,0,0,1-1.59-.39,2.74,2.74,0,0,1-1-1,2.78,2.78,0,0,1-.41-1.87C23.21,127.88,23.34,127.66,23.31,127.65Z"/><path class="cls-7" d="M107.54,132.42a3.12,3.12,0,0,1,0,2.09,2.73,2.73,0,0,1-1.66,1.69,2.89,2.89,0,0,1-2.93-.8,2.66,2.66,0,0,1-.69-1.68,5.69,5.69,0,0,1,.31-2c.42-1.35,1.29-2.82,1.16-4.59a6.48,6.48,0,0,0-2.44-4.62,7.53,7.53,0,0,0-2.49-1.31,11.88,11.88,0,0,0-2.84-.41,13.57,13.57,0,0,1-2.77-.29A3.63,3.63,0,0,1,91,119.17a4.45,4.45,0,0,1-.77-2.37,9.27,9.27,0,0,1,.2-2.46,18.48,18.48,0,0,0,.72-4.68,7.14,7.14,0,0,0-1.43-3.88,9.17,9.17,0,0,0-2.6-2.2,17.61,17.61,0,0,1-2.09-1.44,5.1,5.1,0,0,1-1.3-1.68v.14a1.68,1.68,0,0,0,.16.39,4.31,4.31,0,0,0,1,1.28A15.36,15.36,0,0,0,87,103.8,9.23,9.23,0,0,1,89.48,106a6.71,6.71,0,0,1,1.3,3.7,18.58,18.58,0,0,1-.75,4.57,9.77,9.77,0,0,0-.23,2.58,5,5,0,0,0,.86,2.61,4.08,4.08,0,0,0,2.4,1.51,14.38,14.38,0,0,0,2.85.31,11.46,11.46,0,0,1,2.74.38,7.6,7.6,0,0,1,2.34,1.23,6.07,6.07,0,0,1,2.29,4.29c.14,1.61-.66,3-1.1,4.45a6.11,6.11,0,0,0-.3,2.16,3,3,0,0,0,.81,1.87,3.17,3.17,0,0,0,3.26.83,3.07,3.07,0,0,0,1.82-3.5A1.65,1.65,0,0,0,107.54,132.42Z"/><path class="cls-6" d="M98,210.75V199.69c1.24-6.21.65-13.57-2.24-19.24A104.81,104.81,0,0,0,88.8,169.9l-11-14.29c-6.06,4.41-15.55,1.22-23.69-1.74,0,0-8,4.45-11.78,8.63C38.4,166.9,51.84,222,51.84,222c-6.09,12.18-14,23-15.14,34.1l63.6,2.45-2.7-29.16Z"/><path class="cls-7" d="M97.1,229.65a5.79,5.79,0,0,1,0-1.25V225c0-3,.11-6.87.18-11.18s.2-8.32.34-11.18c.07-1.43.14-2.59.2-3.39a5.76,5.76,0,0,1,.16-1.23,6.42,6.42,0,0,1,0,1.24v3.39c-.05,3-.12,6.87-.19,11.18s-.19,8.32-.33,11.18c-.07,1.43-.14,2.59-.21,3.39A5.11,5.11,0,0,1,97.1,229.65Z"/><path class="cls-8" d="M126.15,239.71s6.2.34,10,2.74,10,6.14,12.55,10.77c1.17,2.13-2.16,2.58-3.81,1.35s-4.16-3.57-5.41-3.85l-1.25-.29A81,81,0,0,0,142,258c1.29,2,2.41,5.32-1.47,5.47,0,0-2.61,3.4-5.25.88,0,0-2.06,3.09-5.38-1.19,0,0-1.94,2.45-2.74,1.51s-3.45-2.42-4.22-5.48q-1.74-5.34-4-10.49Z"/><path class="cls-8" d="M265,153.77c.69,0,29.08-3,29.08-3s2.41-11.54,2.28-14.54-2.15-22.85-2.15-22.85l10.63-5s14.21,47.92,11.11,51.9-8.93,7.55-9.43,7.57-27.51,12-46.3,5.77S265,153.77,265,153.77Z"/><path class="cls-6" d="M240.08,179.64c4.18,4.15,11.38,7.6,23.4,4.6,23.76-5.94,41.57-11,48.65-14.8s4.32-20.78,4.92-21.55c1.79-2.32-.18-7.3-2.73-8.08-7.27-2.2-19.92-1.33-20.56-.67-3.73,3.92-.33,8.68-.33,8.68l-31.33,4.11a52.85,52.85,0,0,0-11.51.73"/><path class="cls-7" d="M250.59,152.66l.75-.16c.5-.09,1.24-.22,2.22-.34a53.1,53.1,0,0,1,8.55-.36h0l31.32-4.2-.15.35a8.4,8.4,0,0,1-1.44-5.15,6.06,6.06,0,0,1,.9-2.66,8.51,8.51,0,0,1,.86-1.14,2,2,0,0,1,.41-.22l.36-.09c.24-.06.47-.08.7-.13a63.41,63.41,0,0,1,11.69-.24,41.36,41.36,0,0,1,6.08.84c.5.11,1,.26,1.52.39a3.84,3.84,0,0,1,1.43.84,7.12,7.12,0,0,1,1.77,2.72,6.81,6.81,0,0,1,.41,3.25,4,4,0,0,1-.63,1.6c-.09.1-.08.37-.09.63v.8c.07,2.15.17,4.34.11,6.54a27.53,27.53,0,0,1-1.51,9.18,9.09,9.09,0,0,1-2.6,3.83,8.56,8.56,0,0,1-2,1.18c-.66.35-1.36.62-2,.94-2.74,1.17-5.49,2.13-8.2,3s-5.37,1.71-8,2.48c-10.46,3-20,5.43-27.94,7.42a51.63,51.63,0,0,1-5.76,1.19,29.77,29.77,0,0,1-5.25.28,21.79,21.79,0,0,1-8.19-1.78,18.42,18.42,0,0,1-4.5-2.8,10.72,10.72,0,0,1-1.34-1.27s.46.44,1.41,1.19a19.54,19.54,0,0,0,4.52,2.7,21.94,21.94,0,0,0,8.11,1.67,29.07,29.07,0,0,0,5.19-.32A52.88,52.88,0,0,0,265,183.6c8-2,17.46-4.46,27.89-7.52,2.61-.77,5.27-1.59,8-2.49s5.44-1.85,8.15-3c.66-.31,1.35-.58,2-.93a7.6,7.6,0,0,0,4.32-4.73,27.27,27.27,0,0,0,1.45-9.05c.06-2.19,0-4.36-.11-6.52v-1.25a1,1,0,0,1,0-.24,1.42,1.42,0,0,1,.08-.18l.05-.08a3.21,3.21,0,0,0,.54-1.37,6.29,6.29,0,0,0-.39-3,6.62,6.62,0,0,0-1.62-2.52,3.31,3.31,0,0,0-1.24-.73l-1.49-.39a41.83,41.83,0,0,0-6-.83,61.28,61.28,0,0,0-11.57.22,2.62,2.62,0,0,0-.68.12l-.32.07-.2.1a8.26,8.26,0,0,0-.81,1.06,5.4,5.4,0,0,0-.84,2.45,8,8,0,0,0,1.34,4.85l.2.31h-.35l-31.34,4h0a55,55,0,0,0-8.51.24c-1,.1-1.73.21-2.23.28A2.79,2.79,0,0,0,250.59,152.66Z"/><path class="cls-10" d="M165.76,185.23,153,162.3h0L394.37,28a12,12,0,0,1,16.32,4.65l1.1,2a12,12,0,0,1-4.65,16.33L165.77,185.24h0Z"/><path class="cls-10" d="M368.16,64l-29.55-53.1a2.25,2.25,0,0,1,.87-3.05L353,.28a2.24,2.24,0,0,1,3,.87l29.56,53.1h0Z"/><rect class="cls-10" x="319.53" y="28.35" width="20" height="50.77" rx="3.24" transform="translate(15.46 167.05) rotate(-29.1)"/><rect class="cls-10" x="333.75" y="27.71" width="31.06" height="27.42" transform="translate(23.95 175.09) rotate(-29.1)"/><path class="cls-7" d="M390.84,30c.07.12-47.3,26.62-105.78,59.18s-106,58.86-106,58.73,47.29-26.62,105.79-59.19S390.77,29.84,390.84,30Z"/><path class="cls-10" d="M68,229.52c17.8,32,55.33,45,83.83,29.15S189,204,171.24,172.06s-55.32-45-83.83-29.15S50.22,197.56,68,229.52Zm87.79-48.86c12.47,22.4,6.38,49.57-13.6,60.68s-46.27,2-58.74-20.42-6.38-49.57,13.59-60.69S143.33,158.26,155.8,180.66Z"/><rect class="cls-10" x="199.32" y="127.72" width="14.26" height="40.12" rx="6.52" transform="translate(-45.81 119.06) rotate(-29.1)"/><rect class="cls-10" x="224.61" y="113.64" width="14.26" height="40.12" rx="6.52" transform="translate(-35.77 129.58) rotate(-29.1)"/><path class="cls-7" d="M205.81,132.11c.13-.07,3.18,5.3,6.83,12s6.5,12.16,6.37,12.23-3.18-5.29-6.83-12S205.68,132.11,205.81,132.11Z"/><path class="cls-7" d="M194.2,140.36c.13-.07,3.11,5.06,6.67,11.44s6.33,11.63,6.21,11.7-3.11-5.06-6.63-11.39S194.08,140.43,194.2,140.36Z"/><path class="cls-7" d="M231.26,118.18c.13-.07,3.24,5.27,7,11.93s6.61,12.13,6.48,12.2-3.23-5.28-6.94-11.94S231.14,118.25,231.26,118.18Z"/><path class="cls-7" d="M219.05,125.55c.12-.07,3.17,5.24,6.79,11.86s6.47,12,6.34,12.11-3.16-5.24-6.79-11.86S218.92,125.62,219.05,125.55Z"/><path class="cls-7" d="M291.58,89.48a4.72,4.72,0,0,0,2-9.18,4.92,4.92,0,0,0-4.27-8.3,5.89,5.89,0,0,0-6.13-5.64,6,6,0,0,0-2.73.8A6.64,6.64,0,0,0,272.3,67a4.71,4.71,0,0,0-4.17,8"/><path class="cls-8" d="M271.29,71.64h1a20.06,20.06,0,0,1,20,18.47c.75,9.69,1.45,20.4,1.37,25.6-.19,10.8-10.93,12.4-10.93,12.4l.87,12.94-26.13-.85-2.17-46.9C254.36,82.11,260.09,72.26,271.29,71.64Z"/><path class="cls-9" d="M282.8,128.11a26.09,26.09,0,0,1-14.09-4.17s3.46,8.15,14.2,7.21Z"/><path class="cls-7" d="M286.36,100.26a1.52,1.52,0,0,1-1.49,1.54,1.47,1.47,0,0,1-1.58-1.37v0a1.56,1.56,0,0,1,1.49-1.55,1.49,1.49,0,0,1,1.58,1.38Z"/><path class="cls-7" d="M289.94,95.4c-.19.2-1.36-.66-3-.66s-2.87.82-3.05.62.11-.45.64-.84a4.25,4.25,0,0,1,2.44-.74,4,4,0,0,1,2.39.78C289.86,95,290,95.32,289.94,95.4Z"/><path class="cls-7" d="M271.45,99.54a1.53,1.53,0,0,1-1.5,1.57,1.47,1.47,0,0,1-1.58-1.37v0a1.55,1.55,0,0,1,1.49-1.55,1.49,1.49,0,0,1,1.59,1.37Z"/><path class="cls-7" d="M273.68,95.66c-.19.2-1.36-.66-3-.66s-2.87.82-3.05.62.11-.45.64-.84a4.25,4.25,0,0,1,2.44-.74,4,4,0,0,1,2.39.78C273.6,95.21,273.77,95.57,273.68,95.66Z"/><path class="cls-7" d="M279.64,108a11.17,11.17,0,0,1,2.69-.48c.42,0,.82-.12.9-.41a2.12,2.12,0,0,0-.28-1.25l-1.24-3.22c-1.72-4.59-3-8.36-2.78-8.42s1.73,3.59,3.45,8.17c.41,1.13.81,2.21,1.19,3.24a2.51,2.51,0,0,1,.21,1.66,1.06,1.06,0,0,1-.7.61,2.14,2.14,0,0,1-.71.1A10.4,10.4,0,0,1,279.64,108Z"/><path class="cls-7" d="M275.13,89.3c-.22.42-1.63,0-3.38-.1s-3.21.23-3.37-.21c-.07-.21.24-.58.87-.92a5.37,5.37,0,0,1,2.62-.54,5.25,5.25,0,0,1,2.53.78C275,88.7,275.23,89.11,275.13,89.3Z"/><path class="cls-7" d="M290,88.59c-.35.37-1.72,0-3.36,0s-3,.25-3.35-.15c-.14-.19.08-.57.69-.92a5.63,5.63,0,0,1,5.4.16C290,88,290.19,88.4,290,88.59Z"/><path class="cls-7" d="M291.25,85.21s-2.82-6.75-6.07-8.33c-3.93-1.92-5.63,2.39-9.38,1.33s-7.5-2.89-11.34,0c-4.2,3.16-2.24,5.39-2.52,10.17-1.1,19.36-4.66,24.82-5.63,15.7-.11-1-2.88-1.8-3.28-6-.52-5.47-.71-12.12.53-16,1-3.27,2.91-5.53,6.26-8,5.3-3.92,12.56-4,17.49-3.47S291.72,76.77,291.25,85.21Z"/><path class="cls-8" d="M257,103.78a2.92,2.92,0,0,0-3-2.83h-.14c-2,.19-4.25,1.32-4.13,5.47.21,7.36,7.56,5.63,7.57,5.41S257.11,106.86,257,103.78Z"/><path class="cls-9" d="M255.6,109.11a1.63,1.63,0,0,1-.34.2,1.25,1.25,0,0,1-.95,0,3.16,3.16,0,0,1-1.55-2.81,4.17,4.17,0,0,1,.3-1.84,1.49,1.49,0,0,1,.94-1,.66.66,0,0,1,.77.33c.1.2.06.35.1.36s.15-.13.08-.43a.77.77,0,0,0-.3-.45.94.94,0,0,0-.71-.17,1.82,1.82,0,0,0-1.31,1.18,4.33,4.33,0,0,0-.39,2.06c.09,1.48.89,2.85,2,3.13a1.31,1.31,0,0,0,1.16-.23C255.6,109.29,255.63,109.11,255.6,109.11Z"/><path class="cls-7" d="M257.18,89.52A6.86,6.86,0,0,0,260.29,91,2.4,2.4,0,0,0,263,89.29c.09-.51,0-1.11.3-1.5s1.15-.32,1.76-.25c2.14.23,4.65-2.13,5.2-4.21a1.9,1.9,0,0,0,2.56.54,6.66,6.66,0,0,0,1.78-1.57,3.07,3.07,0,0,1,2.53-1.25,6.73,6.73,0,0,0,1.6.35c1-.08,1.44-1.21,1.59-2.17s.27-2.07,1.09-2.59a3.89,3.89,0,0,1,2.63-.07c.89.14,2-.07,2.27-.94a1.77,1.77,0,0,0-.33-1.33,4.77,4.77,0,0,0-5.62-1.82,6.45,6.45,0,0,0-11.87-1.29,6.55,6.55,0,0,0-9.25.41,6.46,6.46,0,0,0-1.24,2,4.75,4.75,0,0,0-5.38,6.89A4.54,4.54,0,0,0,250.09,84c0,1.52,1.45,3,2.92,2.64a2.63,2.63,0,0,0,4.54,2.64"/><path class="cls-6" d="M280.86,74.64v.14a1.13,1.13,0,0,1-.05.39,4.79,4.79,0,0,1-.54,1.42,5.19,5.19,0,0,1-1.63,1.73,4.85,4.85,0,0,1-3,.85l.12-.16a2.62,2.62,0,0,1-.15,2,7.29,7.29,0,0,1-1.26,1.8,5.14,5.14,0,0,1-.83.85,2.75,2.75,0,0,1-3.53-.43l.27-.08A5.49,5.49,0,0,1,267.91,87a4,4,0,0,1-2.42.79,7.22,7.22,0,0,1-2.38-.53l.2-.09a5.77,5.77,0,0,1-1.75,2.27,3.06,3.06,0,0,1-2.56.69,4,4,0,0,1-3.12-3.18l.17.08a3.83,3.83,0,0,1-2.53.36,4.13,4.13,0,0,1-1.76-.79,3.52,3.52,0,0,1-.82-.9,1.27,1.27,0,0,1-.18-.39,4.2,4.2,0,0,0,1.07,1.19,3.89,3.89,0,0,0,1.72.71,3.55,3.55,0,0,0,2.39-.38l.14-.08v.16A3.78,3.78,0,0,0,259,89.81a2.79,2.79,0,0,0,2.33-.65A5.43,5.43,0,0,0,263,87l.06-.13h.14a6.8,6.8,0,0,0,2.27.5,3.69,3.69,0,0,0,2.24-.73,5.21,5.21,0,0,0,2.22-3.59v-.35l.23.27a2.36,2.36,0,0,0,2.09.76,2.15,2.15,0,0,0,1-.38,4.49,4.49,0,0,0,.78-.79,7.53,7.53,0,0,0,1.24-1.72,2.36,2.36,0,0,0,.16-1.84l-.06-.18h.19a4.63,4.63,0,0,0,2.89-.77,5.11,5.11,0,0,0,1.62-1.65A5.36,5.36,0,0,0,280.86,74.64Z"/><path class="cls-7" d="M279.62,113.44c-.06-.27-1.85.17-3.51-1s-1.93-3.18-2.18-3.13-.25.52-.07,1.33a4.58,4.58,0,0,0,1.73,2.64,4,4,0,0,0,2.9.76C279.26,113.87,279.66,113.56,279.62,113.44Z"/><path class="cls-6" d="M335.08,393.23l7.1,24.19s27,.9,28.73,5.25l-46.46,15.44-12.62-37.25Z"/><path class="cls-1" d="M327.16,420.19a2,2,0,0,0-.59,2.6,1.91,1.91,0,0,0,2.57.61,2.11,2.11,0,0,0,.61-2.76,2,2,0,0,0-2.75-.34"/><path class="cls-7" d="M368.29,420.92s2.37.21,2.62,1.75l-46.46,15.44-1.12-3.81,44.92-13.4"/><path class="cls-5" d="M342.85,416.93c.07.23-1,.71-1.9,1.81S339.8,421,339.56,421s-.33-1.44.75-2.75S342.83,416.71,342.85,416.93Z"/><path class="cls-5" d="M348.39,417.32c.13.21-.72.92-1.18,2.13s-.33,2.31-.56,2.37-.8-1.17-.21-2.67S348.32,417.11,348.39,417.32Z"/><path class="cls-5" d="M353.1,422.23c-.19.12-.88-.91-.71-2.34s1.06-2.29,1.22-2.13-.28,1-.4,2.22S353.32,422.11,353.1,422.23Z"/><path class="cls-5" d="M340.62,411.6c0,.24-1.17.27-2.42.78s-2.12,1.25-2.3,1.1.51-1.28,2-1.87S340.68,411.38,340.62,411.6Z"/><path class="cls-6" d="M226.74,393.44l-10.11,23.1s20.09,18,18.64,22.48l-45.5-18L204,384.38Z"/><path class="cls-1" d="M203.34,409a2,2,0,0,0-2.12,1.61,1.92,1.92,0,0,0,1.58,2.12A2.12,2.12,0,0,0,205,411c0-1-.91-2.14-1.89-2"/><path class="cls-7" d="M234.38,436s1.68,1.69.89,3l-45.5-18,1.59-3.63,43,18.6"/><path class="cls-5" d="M217.45,416.6c-.09.22-1.24-.12-2.62.16s-2.33,1-2.5.82.67-1.32,2.34-1.63S217.59,416.41,217.45,416.6Z"/><path class="cls-5" d="M221.45,420.46c0,.23-1.14.23-2.27.87s-1.73,1.55-2,1.46.14-1.41,1.55-2.18S221.53,420.25,221.45,420.46Z"/><path class="cls-5" d="M221.91,427.24c-.22,0-.09-1.26,1-2.25s2.28-1.07,2.3-.85-.88.62-1.73,1.45S222.14,427.31,221.91,427.24Z"/><path class="cls-5" d="M219.18,411.11c-.17.16-1.07-.54-2.36-1s-2.42-.4-2.46-.63,1.21-.66,2.72-.16S219.36,411,219.18,411.11Z"/><path class="cls-7" d="M243.77,266.54,227.83,331.2s-28.75,48.4-33.62,72.62l26.3,10.34s19.13-46.65,24.74-55.21a69.31,69.31,0,0,1,8.66-10.67,16.63,16.63,0,0,0,4.37-7.56l12.07-46.13Z"/><path class="cls-7" d="M237,256.2s2.22,17.32,18.89,25L291,338.4s2.75,18.6,8,34.27,15.86,45.87,15.86,45.87l28.89-10.8L325.33,344.8l-3-21.83-28.66-73-24.62-14.76Z"/><path class="cls-6" d="M237,256.2l.53-.36,1.59-1.06,6.24-4.12L269,235.11l.08-.05.08.05,24.64,14.73h0v.06l28.72,72.93v.05c1,6.9,2,14.29,3,21.83h0c5,17,10.3,35.19,15.78,53.93q1.33,4.53,2.64,9l.07.23-.23.08-28.89,10.8-.25.09-.08-.25c-5-14.51-9.84-28.48-14.41-41.73-1.15-3.31-2.28-6.59-3.22-9.87s-1.79-6.54-2.56-9.76c-1.52-6.44-2.74-12.73-3.7-18.83v.08l-34.92-57.22.06.05a32.6,32.6,0,0,1-11-8.38,34.38,34.38,0,0,1-5.4-8.66,35.8,35.8,0,0,1-2-6c-.17-.68-.27-1.21-.33-1.57s-.07-.54-.07-.54a2,2,0,0,0,.11.53c.11.35.17.88.36,1.57a37.37,37.37,0,0,0,2.06,5.92,34.8,34.8,0,0,0,5.42,8.57A32.51,32.51,0,0,0,256,281h0l35.19,57.16h0v.05c1,6.08,2.2,12.36,3.72,18.79.77,3.21,1.61,6.46,2.56,9.73s2.07,6.53,3.22,9.84c4.59,13.25,9.42,27.22,14.44,41.72l-.33-.15,28.89-10.8-.16.31q-1.31-4.47-2.64-9l-15.76-53.94h0c-1-7.54-2.06-14.93-3-21.83V323l-28.61-73,.08.09L269,235.27h.15l-23.66,15.48-6.3,4.06-1.62,1.05Z"/><path class="cls-6" d="M252.45,132.63s-8.42,6.48-12.51,13.72c-4.9,8.67-5.43,21.52-5.58,41.48-.15,18.46,2.61,23.59,1.55,30.55-2.09,13.59-3.64,59.2-3.64,59.2s27-10.37,32.24-15l5.27-4.58,33.79,11.17-6.82-41.52-4.68-51.75-6-27.45-1-10.77-29-11.66Z"/><path class="cls-7" d="M284,137.11c.35.07-.83,2.44-2.91,5.92l-.09.14-.16-.06c-2.93-1.14-6.81-2.57-11.05-4.12-4.78-1.74-9.1-3.36-12.19-4.62-1.55-.63-2.79-1.16-3.64-1.55a7.13,7.13,0,0,1-1.3-.64,7.45,7.45,0,0,1,1.38.46l3.69,1.39L270,138.5c4.24,1.55,8.11,3,11,4.24l-.24.08C282.89,139.41,284.18,137.16,284,137.11Z"/><path class="cls-8" d="M318.9,115.55s-2.14-3.33-4.16-6.4-5.08-4.58-5.57-6.18-3.18-8.73-3.61-10.5a22.84,22.84,0,0,1-.52-5.22s2.21-.94,3.27,2.22c.64,1.9,2.68,8.35,3.12,8.67s1-.15,1-.15a75.17,75.17,0,0,1-2.35-7.37c-.1-1.17.31-8.93.31-8.93a2.36,2.36,0,0,1,2.66,1.49c1.05,2,1.09,7,1.09,7l1.59,5.58-.56-5.52.8-10.15a3.83,3.83,0,0,1,3.2,3c.67,2.74-.22,6.56.23,7.37s.94,5.71.94,5.71.55-11.9,1.82-12.24,2.31.92,2.13,3.32-.23,7.48.43,9.72,7.43,11,6.88,14.84a63.2,63.2,0,0,0-.63,7h-11.6Z"/><path class="cls-8" d="M278.21,145.52c.65.25,28.36,7.11,28.36,7.11s6.19-10,7.1-12.9,5.78-22.22,5.78-22.22l11.71-1.1s-3,49.89-7.24,52.58-11,4-11.44,3.9-30,1.9-45.5-10.35S278.21,145.52,278.21,145.52Z"/><g class="cls-11"><path d="M258.35,171.93a21.11,21.11,0,0,0,11.33,6.66c7.35,1.62,23,4.49,23,4.49l-.76-7.68-34-3.64"/></g><path class="cls-6" d="M246,161.37c2.52,5.32,8.12,11,20.43,12.29,24.37,2.52,42.82,3.86,50.79,2.66s11.14-18.07,12-18.59c2.48-1.56,2.32-6.92.18-8.52-6.08-4.55-18.27-8-19.09-7.63-4.85,2.41-3.27,8-3.27,8l-30.9-6.82a52,52,0,0,0-11.07-3.22"/><path class="cls-7" d="M265.08,139.59a4.35,4.35,0,0,1,.76.1c.5.1,1.25.22,2.21.43a52.62,52.62,0,0,1,8.16,2.58h0l30.88,6.72-.26.28a8.27,8.27,0,0,1,.4-5.33,6,6,0,0,1,1.74-2.2,8.93,8.93,0,0,1,1.21-.78,2.34,2.34,0,0,1,.45-.07H311a4.21,4.21,0,0,1,.71.12,62.47,62.47,0,0,1,11.07,3.75,42.57,42.57,0,0,1,5.43,2.86c.43.28.86.59,1.29.89a3.81,3.81,0,0,1,1.06,1.27,7.12,7.12,0,0,1,.74,3.16,6.7,6.7,0,0,1-.72,3.2,3.73,3.73,0,0,1-1.14,1.29c-.12.06-.2.32-.3.56l-.26.75c-.66,2-1.32,4.14-2.12,6.2a27.93,27.93,0,0,1-4.54,8.16,8,8,0,0,1-6,3.14c-.75.11-1.5.13-2.24.19-3,.18-5.88.14-8.73.06s-5.64-.23-8.35-.4c-10.87-.7-20.62-1.69-28.8-2.54a52,52,0,0,1-5.82-.84,30,30,0,0,1-5-1.52,22,22,0,0,1-7.09-4.46,18.7,18.7,0,0,1-3.28-4.17,10.61,10.61,0,0,1-.83-1.65s.28.57.92,1.6a19.44,19.44,0,0,0,3.33,4.07,21.63,21.63,0,0,0,7.06,4.34,31.15,31.15,0,0,0,5,1.47,51.48,51.48,0,0,0,5.8.79c8.18.81,17.93,1.76,28.78,2.44,2.72.16,5.5.3,8.34.37s5.75.11,8.69-.06c.73-.07,1.48-.09,2.21-.2a7.44,7.44,0,0,0,2.14-.41,8.51,8.51,0,0,0,3.54-2.56,27.3,27.3,0,0,0,4.44-8c.8-2,1.45-4.11,2.11-6.17l.28-.78a1.24,1.24,0,0,1,.16-.39,2.53,2.53,0,0,1,.13-.22,1.59,1.59,0,0,1,.13-.13l.07-.06a3.05,3.05,0,0,0,1-1.11,6.21,6.21,0,0,0,.66-3,6.72,6.72,0,0,0-.67-2.92,3.44,3.44,0,0,0-.91-1.1c-.43-.29-.84-.6-1.27-.87a40.88,40.88,0,0,0-5.36-2.83,62,62,0,0,0-11-3.74c-.23,0-.46-.1-.68-.12h-.55a8.28,8.28,0,0,0-1.12.73,5.44,5.44,0,0,0-1.63,2,8,8,0,0,0-.39,5l.09.35-.35-.08-30.83-6.9h0a55.84,55.84,0,0,0-8.08-2.68c-1-.23-1.69-.39-2.19-.49A4.52,4.52,0,0,0,265.08,139.59Z"/><path class="cls-7" d="M317.23,159.28a6.37,6.37,0,0,1-2-.87,19.51,19.51,0,0,1-4.2-3.14,21,21,0,0,1-3.28-4.1,6.94,6.94,0,0,1-.95-2,44.11,44.11,0,0,0,4.59,5.69A40.36,40.36,0,0,0,317.23,159.28Z"/><path class="cls-8" d="M99.67,241.64s6.2.33,10,2.74,10,6.13,12.55,10.77c1.17,2.13-2.16,2.58-3.8,1.34s-4.17-3.56-5.42-3.85l-1.25-.28a82.07,82.07,0,0,0,3.81,7.55c1.29,2,2.41,5.32-1.46,5.48,0,0-2.62,3.4-5.26.88,0,0-2.06,3.08-5.38-1.19,0,0-1.93,2.44-2.74,1.51s-3.45-2.42-4.22-5.48a107.24,107.24,0,0,0-4-10.49Z"/><path class="cls-6" d="M46.91,160.11A15,15,0,0,0,39.12,166c-2.38,3.66-3.11,10-2.43,14.72,1.44,9.95,6,26.74,8.57,37.52.88,3.72,2.69,10.38,8,13.91l37.89,22.72,10.13-15L66.74,211.68,59.91,173.1Z"/><path class="cls-7" d="M40.36,198a2.91,2.91,0,0,1,.12.39l.32,1.17c.27,1.06.65,2.58,1.15,4.53l4.19,16.75a19.55,19.55,0,0,0,6.24,9.88,37.25,37.25,0,0,0,5.54,3.68L64,238.11,91.3,254.59l-.35.08,3.65-5.41,6.48-9.63,0,.35L66.9,211.79h-.06v-.07c-2.26-9.51-3.9-17.3-4.94-22.72-.51-2.71-.87-4.82-1.1-6.26-.1-.7-.18-1.25-.24-1.64s-.07-.56-.07-.56c0,.19.1.37.13.55.07.39.17.93.29,1.63.27,1.43.66,3.54,1.22,6.24,1.09,5.4,2.79,13.17,5.1,22.67l-.07-.11,34.29,28.06.18.15-.13.19L95,249.55,91.37,255l-.13.2L91,255,63.77,238.51l-6.08-3.69a38.34,38.34,0,0,1-5.58-3.71A19.83,19.83,0,0,1,45.8,221c-1.71-7.09-3.08-12.82-4-16.79-.45-2-.81-3.49-1.06-4.55l-.29-1.23A2.59,2.59,0,0,1,40.36,198Z"/><path class="cls-7" d="M41,165.44a2.76,2.76,0,0,1,.77-.33,15.47,15.47,0,0,1,2.22-.5,13.3,13.3,0,0,1,7.39,1,14.75,14.75,0,0,1,5.52,5,9.27,9.27,0,0,1,1,2,2.32,2.32,0,0,1,.18.81,21.61,21.61,0,0,0-1.49-2.65,15.72,15.72,0,0,0-5.44-4.71A13.8,13.8,0,0,0,44,165C42.14,165.16,41,165.53,41,165.44Z"/></g></g></svg>