<svg xmlns="http://www.w3.org/2000/svg" viewBox="0 0 155.81 159.16"><defs><style>.cls-1,.cls-3{fill:#d2ebff;}.cls-1{opacity:0.56;}.cls-2{fill:#89caf7;}.cls-4{fill:#073a93;}.cls-5{fill:#1858b5;}.cls-6{fill:#489bff;}.cls-7{fill:#063272;opacity:0.45;}.cls-8{fill:#e6e6e6;}.cls-9{fill:#f49290;}.cls-10{fill:#ffb5b1;}.cls-11{fill:#accfe5;}.cls-12{fill:#ffaa45;}</style></defs><g id="Layer_2" data-name="Layer 2"><g id="OBJECTS"><ellipse class="cls-1" cx="76.95" cy="146.35" rx="74.86" ry="12.81"/><path class="cls-2" d="M70.16,138.74c-26.25-5.53-46.26-25-57.85-56.18A162.55,162.55,0,0,1,2.88,38.88L2.43,30,72.62,5.16,142.82,30l-.45,8.91a163,163,0,0,1-9.43,43.68c-11.59,31.22-31.6,50.65-57.85,56.18l-2.47.52Z"/><path class="cls-3" d="M128.22,39.58,72.62,19.92h0L17,39.58S20.79,114,72.62,125h0C124.46,114,128.22,39.58,128.22,39.58Z"/><polygon class="cls-4" points="72.49 117.38 97.98 113.74 120.39 113.74 140.42 117.66 105.96 135.03 72.49 117.38"/><path class="cls-4" d="M119.28,135.73s-45.1-24.79-50.42-16.67c-7.69,11.74,4.06,17.65,45.94,28.86Z"/><path class="cls-5" d="M131.72,148.12h0a5.29,5.29,0,0,0-2.87-6.9l-10.41-4.32-4,9.77L124.81,151A5.28,5.28,0,0,0,131.72,148.12Z"/><path class="cls-6" d="M117.78,138.48l7.88,3.26a3.58,3.58,0,1,1-2.74,6.62L115,145.1Z"/><path class="cls-7" d="M115.08,145l10.41,4.32a5.26,5.26,0,0,0,6.48-2.08,5.17,5.17,0,0,1-7.16,3.72l-10.41-4.31Z"/><path class="cls-8" d="M118.52,145.19l1.67-4a.41.41,0,0,1,.52-.22h0a.41.41,0,0,1,.22.52l-1.67,4a.4.4,0,0,1-.52.22h0A.41.41,0,0,1,118.52,145.19Z"/><path class="cls-8" d="M121,146.2l1.66-4a.4.4,0,0,1,.52-.21h0a.4.4,0,0,1,.22.52l-1.67,4a.39.39,0,0,1-.52.21h0A.39.39,0,0,1,121,146.2Z"/><path class="cls-8" d="M123.67,147.32l1.67-4a.41.41,0,0,1,.52-.22h0a.4.4,0,0,1,.21.52l-1.66,4a.4.4,0,0,1-.52.22h0A.41.41,0,0,1,123.67,147.32Z"/><path class="cls-6" d="M135.62,102.23c-.69-2.39-4.14-6.42-7.21-14.7-3.19-8.6-16.79-9.53-16.79-9.53l-5.27,2.83L101.07,78s-13.6.93-16.79,9.53c-3.07,8.28-6.52,12.31-7.21,14.7s3.05,17.8,13.8,20h30.95C132.57,120,136.32,104.61,135.62,102.23Z"/><path class="cls-9" d="M112.21,78.06v4.23s-1,4.72-5.57,5.51a7.18,7.18,0,0,1-5.54-5.51V78.06Z"/><path class="cls-4" d="M96.09,69.75s-1.58-9.88,2.18-11.08c1-.33.28-3.59,6-3.63,7.82-.06,14-1.11,13,14.85Z"/><path class="cls-10" d="M101,70.84a2.7,2.7,0,1,0-2.7,2.7A2.69,2.69,0,0,0,101,70.84Z"/><path class="cls-10" d="M117.48,70.84a2.7,2.7,0,1,0-2.69,2.7A2.68,2.68,0,0,0,117.48,70.84Z"/><path class="cls-10" d="M115.64,66.27h0a4.24,4.24,0,0,1-2.68-3.58l-1.18.33a18.08,18.08,0,0,1-10-.09l-.94-.24A4.28,4.28,0,0,1,98,66.26h0l-.08,4.38a14.62,14.62,0,0,0,2.8,8,7.52,7.52,0,0,0,12.11,0,14.6,14.6,0,0,0,2.79-8V66.28Z"/><rect class="cls-3" x="89.53" y="102.49" width="34.18" height="22.78" rx="2.87"/><circle class="cls-2" cx="106.52" cy="113.65" r="3.55"/><path class="cls-4" d="M92.52,135.73s45.1-24.79,50.42-16.67c7.69,11.74-4.06,17.65-45.94,28.86Z"/><path class="cls-5" d="M80.08,148.12h0a5.29,5.29,0,0,1,2.87-6.9l10.41-4.32,4,9.77L87,151A5.28,5.28,0,0,1,80.08,148.12Z"/><path class="cls-6" d="M96.76,145.1l-7.88,3.26a3.58,3.58,0,1,1-2.74-6.62L94,138.48Z"/><path class="cls-7" d="M96.72,145l-10.41,4.32a5.26,5.26,0,0,1-6.48-2.08A5.17,5.17,0,0,0,87,151l10.42-4.31Z"/><path class="cls-8" d="M93.28,145.19l-1.67-4a.41.41,0,0,0-.52-.22h0a.4.4,0,0,0-.21.52l1.66,4a.4.4,0,0,0,.52.22h0A.41.41,0,0,0,93.28,145.19Z"/><path class="cls-8" d="M90.82,146.2l-1.66-4a.39.39,0,0,0-.52-.21h0a.4.4,0,0,0-.22.52l1.67,4a.39.39,0,0,0,.52.21h0A.39.39,0,0,0,90.82,146.2Z"/><path class="cls-8" d="M88.13,147.32l-1.67-4a.41.41,0,0,0-.52-.22h0a.4.4,0,0,0-.21.52l1.66,4a.4.4,0,0,0,.52.22h0A.41.41,0,0,0,88.13,147.32Z"/><path class="cls-4" d="M23.7,117.7S11.75,98.62,15.45,95.86s7.32,8.46,9.21,6.66-6.59-17.84-2.58-21.29,3.7,8.26,7.1,10.44-1.84-16,2.23-18.8,6,6.19,6,6.19S42,61.1,48,64.62s-9.31,21.61-5.7,21S49.65,78.88,52.79,83,35.41,97.58,38.69,97.31,47.81,93,48.82,96.6,32.18,106.79,34,108.05s11.05-5.87,12.51-.62S27.36,121,23.7,117.7Z"/><path class="cls-3" d="M22.25,125.15a62.7,62.7,0,0,0,5.52-12c.76-2.22,1.4-4.53,2-6.75.28-1,.57-2,.86-3.05A147.56,147.56,0,0,1,44.49,71l.23.13a147.08,147.08,0,0,0-13.8,32.29c-.29,1-.58,2-.86,3-.63,2.23-1.28,4.54-2,6.77a63.53,63.53,0,0,1-5.55,12.05Z"/><path class="cls-3" d="M35.28,89.85a.18.18,0,0,1-.05-.07,61.41,61.41,0,0,1-2.7-12.66.13.13,0,0,1,.12-.15.15.15,0,0,1,.15.12A60.42,60.42,0,0,0,35.49,89.7a.14.14,0,0,1-.09.17A.16.16,0,0,1,35.28,89.85Z"/><path class="cls-3" d="M33.6,94.8s0,0,0,0a.14.14,0,0,1,0-.19,106.87,106.87,0,0,1,11.64-7.74,10.43,10.43,0,0,1,2.44-1,.15.15,0,0,1,.17.1.14.14,0,0,1-.1.16,10.29,10.29,0,0,0-2.38,1A105.84,105.84,0,0,0,33.76,94.8.12.12,0,0,1,33.6,94.8Z"/><path class="cls-3" d="M30.93,102.93l0,0a54.41,54.41,0,0,1-5-8.89,69.55,69.55,0,0,1-2.39-7.14.14.14,0,0,1,.09-.17.14.14,0,0,1,.17.1,66.65,66.65,0,0,0,2.38,7.11,54.22,54.22,0,0,0,4.93,8.84.13.13,0,0,1-.18.18Z"/><path class="cls-3" d="M30.89,103.06a.13.13,0,0,1-.05-.16.13.13,0,0,1,.17-.08,2.36,2.36,0,0,0,1.21,0,21,21,0,0,0,3.19-1l.57-.22c3.06-1.11,6.24-2,9.32-2.78a.13.13,0,0,1,.17.09.14.14,0,0,1-.1.17c-3.07.82-6.25,1.67-9.29,2.78l-.58.21a19.82,19.82,0,0,1-3.23,1,2.58,2.58,0,0,1-1.35,0Z"/><path class="cls-3" d="M27.62,113.78c-3.58-2.46-7.67-9.07-10.09-14a.14.14,0,0,1,.06-.18.12.12,0,0,1,.18.06c2.41,4.89,6.47,11.46,10,13.89a.14.14,0,0,1,0,.19A.13.13,0,0,1,27.62,113.78Z"/><path class="cls-3" d="M27.85,113.88l-.1-.07a.15.15,0,0,1,0-.19.15.15,0,0,1,.19,0,2.25,2.25,0,0,0,2,.08l13-3.57a.14.14,0,0,1,.17.1.13.13,0,0,1-.1.16l-13,3.57A2.58,2.58,0,0,1,27.85,113.88Z"/><path class="cls-6" d="M22.11,117.35s-20.68-9-19.2-13.34,10.85,2.83,11.38.27S-1.27,93.3.08,88.18s7.75,4.71,11.79,4.58S1.29,80.63,3,76s8.49,1.69,8.49,1.69-6.46-17.38.54-17.92,4.58,23.11,7.21,20.55,2.22-9.7,7.14-8.09S20.36,94.11,22.92,92s5-8.76,8-6.33-7.95,17.85-5.73,17.85,5.79-11.12,10-7.61S27,118,22.11,117.35Z"/><path class="cls-3" d="M25.14,124.32a62.2,62.2,0,0,0-2.25-13c-.64-2.27-1.41-4.54-2.16-6.73-.34-1-.68-2-1-3A147.45,147.45,0,0,1,12.77,67L13,67A147.44,147.44,0,0,0,20,101.48c.33,1,.68,2,1,3,.75,2.2,1.52,4.47,2.16,6.74a62.24,62.24,0,0,1,2.26,13.09Z"/><path class="cls-3" d="M15.87,87.8a.16.16,0,0,1-.09,0,61.5,61.5,0,0,1-9.41-8.91.14.14,0,0,1,.21-.18A60.51,60.51,0,0,0,16,87.55a.13.13,0,0,1,0,.19A.11.11,0,0,1,15.87,87.8Z"/><path class="cls-3" d="M17.29,92.84h0a.13.13,0,0,1-.08-.17,105.4,105.4,0,0,1,5.21-13,10.5,10.5,0,0,1,1.42-2.25.14.14,0,0,1,.19,0,.13.13,0,0,1,0,.19,10.08,10.08,0,0,0-1.38,2.19,106.52,106.52,0,0,0-5.2,13A.14.14,0,0,1,17.29,92.84Z"/><path class="cls-3" d="M19.7,101.06h-.05a54.05,54.05,0,0,1-9.14-4.51,69.69,69.69,0,0,1-6-4.54.13.13,0,0,1,0-.19.15.15,0,0,1,.19,0,65.35,65.35,0,0,0,6,4.52,53.15,53.15,0,0,0,9.09,4.49.14.14,0,0,1,.07.18A.13.13,0,0,1,19.7,101.06Z"/><path class="cls-3" d="M19.73,101.19a.14.14,0,0,1-.13-.1.15.15,0,0,1,.1-.17,2.24,2.24,0,0,0,1-.68,20,20,0,0,0,2.07-2.62l.36-.51c1.88-2.65,4-5.16,6.11-7.58a.13.13,0,0,1,.19,0,.14.14,0,0,1,0,.19c-2.07,2.42-4.21,4.93-6.09,7.57l-.36.5a19.8,19.8,0,0,1-2.1,2.66,2.55,2.55,0,0,1-1.12.75Z"/><path class="cls-3" d="M23.12,111.89c-4.34,0-11.47-3.13-16.26-5.82a.14.14,0,0,1,.13-.24c4.76,2.67,11.84,5.79,16.13,5.79a.13.13,0,0,1,.13.14A.13.13,0,0,1,23.12,111.89Z"/><path class="cls-3" d="M23.37,111.85h-.12a.13.13,0,0,1-.12-.14.14.14,0,0,1,.14-.13c.65.05,1.21-.48,1.7-1.07l8.73-10.34a.14.14,0,0,1,.21.17l-8.73,10.34A2.62,2.62,0,0,1,23.37,111.85Z"/><path class="cls-3" d="M13,120.54,16.26,141a6,6,0,0,0,5.91,5H32.23a6,6,0,0,0,5.9-5l3.31-20.44Z"/><path class="cls-11" d="M41.44,120.54H13l.45,2.83h22L32.52,141a6,6,0,0,1-5.9,5h5.61a6,6,0,0,0,5.9-5L41,123.37h0Z"/><path class="cls-3" d="M41.75,114.66H12.64a3,3,0,0,0-3,3h0a3,3,0,0,0,3,3H41.75a3,3,0,0,0,3-3h0A3,3,0,0,0,41.75,114.66Z"/><rect class="cls-12" x="91.15" y="29.43" width="64.67" height="19.97" rx="3.02"/><rect class="cls-4" x="95.83" y="38.38" width="10.57" height="8.02" rx="1.26"/><path class="cls-4" d="M104.77,37.47h-1V35.89a2.66,2.66,0,0,0-5.32,0v1.58h-1V35.89a3.66,3.66,0,0,1,7.31,0Z"/><path class="cls-12" d="M102.23,41.33a1.12,1.12,0,1,0-1.66,1l-.39,2.19h1.87l-.38-2.19A1.12,1.12,0,0,0,102.23,41.33Z"/><circle class="cls-4" cx="118.11" cy="40.02" r="1.83"/><circle class="cls-4" cx="125.09" cy="40.02" r="1.83"/><path class="cls-4" d="M133.89,40a1.83,1.83,0,1,1-1.83-1.83A1.83,1.83,0,0,1,133.89,40Z"/><path class="cls-4" d="M140.87,40A1.83,1.83,0,1,1,139,38.19,1.83,1.83,0,0,1,140.87,40Z"/><path class="cls-4" d="M147.85,40A1.83,1.83,0,1,1,146,38.19,1.83,1.83,0,0,1,147.85,40Z"/><path class="cls-6" d="M59.65,3.12V27.46a3.14,3.14,0,0,1-3.12,3.12H12a3.14,3.14,0,0,1-3.13-3.12V3.12A3.14,3.14,0,0,1,12,0H56.53A3.14,3.14,0,0,1,59.65,3.12Z"/><rect class="cls-4" x="8.91" y="8.53" width="50.73" height="6.88"/><path class="cls-4" d="M55.72,19.41H43.09A1.14,1.14,0,0,0,42,20.56h0a1.15,1.15,0,0,0,1.14,1.15H55.72a1.15,1.15,0,0,0,1.14-1.15h0A1.14,1.14,0,0,0,55.72,19.41Z"/><path class="cls-4" d="M55.72,23.9H50a1.14,1.14,0,0,0-1.15,1.15h0A1.14,1.14,0,0,0,50,26.19h5.74a1.14,1.14,0,0,0,1.14-1.14h0A1.14,1.14,0,0,0,55.72,23.9Z"/></g></g></svg>