<svg xmlns="http://www.w3.org/2000/svg" viewBox="0 0 428.95 434.86"><defs><style>.cls-1{fill:#ebebeb;}.cls-2{fill:#fafafa;}.cls-3{fill:#e0e0e0;}.cls-4{fill:#f5f5f5;}.cls-5{fill:#ff5b5b;}.cls-6{fill:#263238;}.cls-7{fill:#c69481;}.cls-8{fill:#936457;}.cls-9{opacity:0.6;}.cls-10{fill:#fff;}.cls-11{fill:#455a64;}.cls-12{opacity:0.3;}</style></defs><g id="Layer_2" data-name="Layer 2"><g id="Layer_1-2" data-name="Layer 1"><g id="freepik--background-complete--inject-2"><rect class="cls-1" x="10.63" y="7.21" width="146.97" height="264.02"/><rect class="cls-2" x="16.5" y="14.86" width="133.71" height="248.5"/><polygon class="cls-3" points="163.82 273.61 157.6 271.23 157.6 2.73 163.82 2.73 163.82 273.61"/><path class="cls-4" d="M49.28,175.38,84,143.1c4.4-4.09,10.15-8.49,15.81-6.48,2.72,1,4.77,3.3,7.44,4.41,5.33,2.22,11.42-1,15.52-5.06s7.33-9.15,12.3-12.1,12.68-2.58,15.13,2.65v35.13l-50.46,21.6Z"/><path class="cls-3" d="M16.5,155.19c12.8-5.21,25.57-.78,34.73,9.56,1.93,2.18,3.68,4.69,6.33,5.9,3.59,1.62,7.73.41,11.64,0a29.3,29.3,0,0,1,27.55,13.29L54,204.94l-37.52-.28Z"/><path class="cls-1" d="M150.21,155.36c-8.43-4.07-15.84.86-23.62,6.07s-15,11.89-24.12,14c-6.09,1.4-12.62.62-18.52,2.72C72,182.42,65,197.66,52.29,198.39c-6.91.4-13.1-3.79-19.26-6.93s-11-6.12-16.53-1.92v73.83H150.21Z"/><rect class="cls-3" x="16.5" y="86.35" width="136.61" height="2.65"/><rect class="cls-3" x="16.5" y="145.53" width="136.61" height="2.65"/><rect class="cls-3" x="16.5" y="204.7" width="136.61" height="2.65"/><rect class="cls-3" x="79.98" y="87.67" width="6.76" height="182.74"/><rect class="cls-3" x="42.25" y="14.86" width="3.06" height="72.81"/><rect class="cls-3" x="68.65" y="14.86" width="3.06" height="72.81"/><rect class="cls-3" x="95.04" y="14.86" width="3.06" height="72.81"/><rect class="cls-3" x="121.44" y="14.86" width="3.06" height="72.81"/><rect class="cls-3" x="4.41" y="2.73" width="6.22" height="270.13"/><rect class="cls-3" x="4.41" width="159.4" height="7.2"/><rect class="cls-3" y="274.49" width="168.02" height="6.71"/><polygon class="cls-1" points="157.6 271.23 168.02 274.49 0 274.49 10.63 271.23 157.6 271.23"/><path class="cls-3" d="M159.33,348.67a16.26,16.26,0,0,1,4-1.77l.8-4,6.73-.17,1,3.95a16.64,16.64,0,0,1,4.09,1.57l3.39-2.25,4.87,4.64-2.09,3.5a16.26,16.26,0,0,1,1.77,4l4,.8.16,6.72-3.94,1a16.64,16.64,0,0,1-1.57,4.09l2.25,3.38L180.12,379l-3.46-2.07a16.29,16.29,0,0,1-4,1.78l-.8,4-6.72.17-1-3.95a16.66,16.66,0,0,1-4.09-1.58l-3.38,2.25-4.86-4.67,2.08-3.49a16.29,16.29,0,0,1-1.78-4l-4-.8-.17-6.73,3.94-1a16.66,16.66,0,0,1,1.58-4.09l-2.25-3.39,4.63-4.87,3.49,2.08Zm3.65,8.94a7.21,7.21,0,1,0,10.2-.26A7.21,7.21,0,0,0,163,357.61Z"/><path class="cls-3" d="M163,357.61a5.43,5.43,0,0,1,1.34-1.19,7.12,7.12,0,0,1,4.7-1.15,7.32,7.32,0,0,1,5.81,4,7.41,7.41,0,0,1,.73,4.24,7.33,7.33,0,0,1-6.05,6.35,7.09,7.09,0,0,1-4.22-.51,7.41,7.41,0,0,1-3-2.46,7.3,7.3,0,0,1-.36-7.9,5.35,5.35,0,0,1,1.12-1.39,16.52,16.52,0,0,0-1,1.47,7.2,7.2,0,0,0-.76,4.62,6.83,6.83,0,0,0,1.26,3,7,7,0,0,0,2.89,2.32,7,7,0,0,0,9.72-5.53,6.17,6.17,0,0,0,0-2.1,6.74,6.74,0,0,0-.62-1.92,7,7,0,0,0-5.51-3.89,7.2,7.2,0,0,0-4.58,1A13.44,13.44,0,0,0,163,357.61Z"/><path class="cls-3" d="M159.33,348.67l-.22-.11-.67-.38-2.63-1.53h.08l-4.61,4.89v-.13l2.27,3.38v.12A16.47,16.47,0,0,0,152,359v.08h-.08l-3.94,1,.15-.12q.09,3.18.18,6.72l-.13-.15,4,.79h.1v.1a16.62,16.62,0,0,0,1.76,4l.06.09-.06.1L152,375.08v-.23l4.88,4.63h-.24l3.38-2.25.1-.07.11.06a16.34,16.34,0,0,0,4,1.55h.12v.12c.31,1.23.65,2.58,1,3.94l-.21-.15,6.73-.17-.2.16c.25-1.26.53-2.62.8-4v-.13h.12a16.37,16.37,0,0,0,4-1.75h0l.11-.06.11.06c1.17.7,2.33,1.4,3.49,2.08H180l4.64-4.87v.25l-2.25-3.38-.07-.1.06-.11a16.37,16.37,0,0,0,1.56-4v-.12h.11l3.95-1-.15.19q-.09-3.44-.16-6.72l.15.18-4-.8h-.11v-.11a16.62,16.62,0,0,0-1.76-4v-.19l2.09-3.48v.21l-4.86-4.65h.19L176,348.41l-.08,0h-.08a16,16,0,0,0-4-1.57h-.08v-.08c-.36-1.43-.68-2.73-1-3.95l.12.1-6.73.13.09-.07c-.33,1.59-.6,2.89-.82,4h0a17.61,17.61,0,0,0-3.07,1.2l-.72.39-.24.12.23-.15c.15-.1.38-.24.7-.42a16.73,16.73,0,0,1,3.06-1.27v.05l.77-4v-.07h0l6.72-.2h.1v.09c.31,1.22.64,2.51,1,3.94l-.1-.1a16.62,16.62,0,0,1,4.14,1.58h-.16l3.38-2.26.1-.07.1.09,4.88,4.62.1.1-.07.12c-.68,1.13-1.37,2.29-2.08,3.49v-.19a16.74,16.74,0,0,1,1.8,4l-.14-.13,4,.8H188v.19c.06,2.19.11,4.43.17,6.72v.16h-.16l-3.94,1,.15-.15a16.5,16.5,0,0,1-1.59,4.14v-.21l2.25,3.39.09.13-.11.12-4.64,4.87-.11.12-.14-.08-3.49-2.08h.21a16.36,16.36,0,0,1-4.06,1.79l.15-.15c-.28,1.37-.55,2.72-.8,4v.16h-.16l-6.73.16H165v-.15l-1-3.94.15.14a17.07,17.07,0,0,1-4.14-1.6h.2l-3.38,2.25-.13.09-.11-.11-4.87-4.64-.11-.1.08-.13,2.09-3.49v.19a16.36,16.36,0,0,1-1.79-4.06l.13.12-4-.8H148v-.13c0-2.36-.1-4.61-.15-6.72v-.12h.11l3.95-1-.1.1a16.86,16.86,0,0,1,1.6-4.11v.12l-2.26-3.42-.05-.07.06-.06,4.67-4.85h0l2.57,1.58.66.41Z"/><path class="cls-4" d="M127.64,305.69a17.47,17.47,0,0,1,4.26-1.89l.86-4.24,7.15-.18,1.06,4.2a17.89,17.89,0,0,1,4.36,1.68l3.6-2.4,5.18,4.93-2.21,3.72a17.54,17.54,0,0,1,1.89,4.27l4.24.85.18,7.15-4.2,1.06a17.49,17.49,0,0,1-1.68,4.36l2.4,3.6-4.93,5.14-3.68-2.17a17.16,17.16,0,0,1-4.27,1.89L141,341.9l-7.15.18-1.06-4.2a17.49,17.49,0,0,1-4.36-1.68l-3.6,2.4-5.18-4.93,2.17-3.73a17.16,17.16,0,0,1-1.89-4.27l-4.24-.85-.18-7.15,4.2-1.06a17.86,17.86,0,0,1,1.67-4.36l-2.39-3.6,4.93-5.18,3.72,2.21Zm3.88,9.51a7.68,7.68,0,1,0,10.86-.27,7.69,7.69,0,0,0-10.86.27Z"/><path class="cls-4" d="M131.52,315.2a5.73,5.73,0,0,1,1.42-1.27,7.68,7.68,0,0,1,5-1.22,7.86,7.86,0,0,1,6.91,6.42,7.25,7.25,0,0,1,.06,2.37,7.83,7.83,0,0,1-6.44,6.76,8.05,8.05,0,0,1-4.55-.55,8,8,0,0,1-3.21-2.62,7.7,7.7,0,0,1-.35-8.41,5.5,5.5,0,0,1,1.19-1.48c-.36.51-.69,1-1,1.57a7.7,7.7,0,0,0-.82,4.92,7.42,7.42,0,0,0,1.34,3.18,7.57,7.57,0,0,0,3.05,2.47,7.82,7.82,0,0,0,2,.6,7,7,0,0,0,2.24-.07,7.42,7.42,0,0,0,6.08-6.39,7.34,7.34,0,0,0-.71-4.23A7.52,7.52,0,0,0,133,314.12C132,314.72,131.56,315.24,131.52,315.2Z"/><path class="cls-4" d="M127.64,305.69a.9.9,0,0,1-.24-.12l-.71-.41-2.8-1.62H124c-1.25,1.34-2.9,3.1-4.9,5.22v-.14l2.41,3.59v.13a17.21,17.21,0,0,0-1.65,4.33v.08h-.09l-4.19,1.07.12-.16q.09,3.39.19,7.16l-.14-.17,4.25.85h.1v.1a17.3,17.3,0,0,0,1.87,4.22l.06.1-.06.1-2.21,3.72v-.25l5.19,4.93h-.25l3.6-2.4.1-.07.11.06a16.93,16.93,0,0,0,4.31,1.65h.12v.13c.34,1.31.7,2.75,1.07,4.19l-.22-.16,7.16-.18-.21.18.85-4.25v-.13h.13a17.07,17.07,0,0,0,4.21-1.87h0l.11-.07.11.07,3.72,2.21h-.27l4.93-5.18v.27l-2.4-3.6-.07-.11.06-.12a17.41,17.41,0,0,0,1.66-4.3v-.12h.13l4.19-1.06-.15.21c-.06-2.45-.12-4.83-.17-7.16l.16.2-4.24-.86h-.12v-.11a17.3,17.3,0,0,0-1.87-4.22l-.06-.1.06-.1c.77-1.27,1.5-2.51,2.23-3.71v.23l-5.1-5H149l-3.61,2.39-.08.05-.08-.05a18.08,18.08,0,0,0-4.31-1.67h-.09v-.09c-.38-1.52-.72-2.9-1-4.2l.13.1-7.16.15.09-.08-.88,4.24h0a18.24,18.24,0,0,0-3.26,1.28l-.77.41a1.19,1.19,0,0,1-.25.13l.24-.16c.16-.1.4-.26.75-.44a17.17,17.17,0,0,1,3.25-1.36v.06c.22-1.16.49-2.55.82-4.25v-.08h.08l7.16-.21h.1v.1l1,4.28-.1-.1a17.32,17.32,0,0,1,4.39,1.68h-.16l3.59-2.4.12-.08.09.1c1.65,1.55,3.37,3.19,5.2,4.92l.1.1-.07.13c-.72,1.2-1.45,2.44-2.21,3.72v-.2a17.9,17.9,0,0,1,1.92,4.31l-.15-.14,4.24.85h.16v.16c.06,2.33.12,4.71.19,7.16v.19l-.16.05-4.2,1.06.16-.16a17.9,17.9,0,0,1-1.7,4.41v-.22c.8,1.19,1.59,2.39,2.4,3.6l.1.14-.12.13L150,338.13l-.12.13-.15-.09L146,335.94h.22a18,18,0,0,1-4.31,1.91l.15-.17c-.29,1.46-.58,2.9-.85,4.24v.17H141l-7.16.17h-.17v-.17c-.37-1.45-.73-2.88-1.06-4.2l.16.16a17.9,17.9,0,0,1-4.41-1.7h.22L125,338.74l-.13.09-.12-.11-5.18-4.94-.11-.11.08-.13,2.22-3.72v.2a18,18,0,0,1-1.9-4.31l.14.12-4.25-.86h-.13v-.14c-.06-2.51-.11-4.91-.16-7.16v-.12h.12l4.2-1-.1.1a17.69,17.69,0,0,1,1.7-4.38v.13L119,308.79v-.07l.06-.07,5-5.15h0l2.74,1.67.7.44Z"/><path class="cls-3" d="M194.39,343.94h0l-1.63-6.47a26.55,26.55,0,0,1-6.71-2.58l-5.56,3.7h0l-8-7.63h0l3.41-5.72a27.2,27.2,0,0,1-2.91-6.57l-6.55-1.31h0l-.32-11.09h0l6.46-1.64a26.89,26.89,0,0,1,2.59-6.7l-3.7-5.56h0l7.62-8h0l5.72,3.41a26.82,26.82,0,0,1,6.57-2.91l1.31-6.55h0l11.06-.27h0l1.63,6.46a27,27,0,0,1,6.71,2.59l5.56-3.71h0l8,7.63h0l-3.41,5.72a26.82,26.82,0,0,1,2.91,6.57l6.55,1.31h0l.27,11.06h0l-6.46,1.63a27,27,0,0,1-2.59,6.71l3.7,5.56h0l-7.62,8h0l-5.72-3.41a27.2,27.2,0,0,1-6.57,2.91l-1.31,6.55h0Zm-8.34-9.11h0a26.88,26.88,0,0,0,6.72,2.59h0l1.64,6.46,11-.27,1.32-6.54h0a26.88,26.88,0,0,0,6.58-2.91h0l5.72,3.41,7.59-8L222.93,324h0a26.88,26.88,0,0,0,2.59-6.72h0l6.46-1.64-.27-11-6.54-1.31h0a26.88,26.88,0,0,0-2.91-6.58h0l3.41-5.72-8-7.59-5.55,3.69h0a26.88,26.88,0,0,0-6.72-2.59h0l-1.64-6.46-11,.27-1.27,6.57h0a26.88,26.88,0,0,0-6.58,2.91h0l-5.79-3.45-7.59,8,3.69,5.55h0a26.88,26.88,0,0,0-2.59,6.72h0l-6.46,1.63.27,11,6.54,1.32h0a26.88,26.88,0,0,0,2.91,6.58h0l-3.37,5.74,8,7.59Zm13.41-12.34a12.52,12.52,0,1,1,.3,0Zm-8.58-20h0a11.82,11.82,0,0,0,8.56,20h.3a11.83,11.83,0,0,0-.29-23.65h-.3a11.74,11.74,0,0,0-8.27,3.67Z"/><path class="cls-1" d="M190.88,302.47a9.11,9.11,0,0,1,2.2-2,11.79,11.79,0,0,1,7.71-1.88,12,12,0,0,1,9.55,6.59,11.4,11.4,0,0,1,1.11,3.32,11.12,11.12,0,0,1,.09,3.64,12.09,12.09,0,0,1-9.93,10.44,12.35,12.35,0,0,1-7-.85A12,12,0,0,1,189,304.68a8.83,8.83,0,0,1,1.84-2.28c.07.05-.71.78-1.61,2.41a11.86,11.86,0,0,0-1.25,7.6,11.56,11.56,0,0,0,22.86-.38,11.09,11.09,0,0,0-.07-3.45,10.83,10.83,0,0,0-1-3.15,11.55,11.55,0,0,0-9-6.39,11.8,11.8,0,0,0-7.52,1.63C191.63,301.72,190.94,302.53,190.88,302.47Z"/><path class="cls-1" d="M184.89,287.79a2.58,2.58,0,0,1-.37-.19l-1.1-.62-4.3-2.51h.14l-7.57,8v-.21c1.12,1.68,2.38,3.55,3.72,5.54l.06.1V298a26.57,26.57,0,0,0-2.55,6.67v.13h-.13l-6.47,1.65.18-.24c.09,3.48.19,7.17.3,11l-.22-.25,6.55,1.3h.17l0,.17a26.72,26.72,0,0,0,2.89,6.51l.1.15-.09.15C175.19,327,174,329,172.84,331l-.06-.38,8,7.61h-.39l5.55-3.7.17-.11.17.1a26.75,26.75,0,0,0,6.64,2.55h.19l0,.2c.52,2,1.08,4.24,1.64,6.47l-.33-.25,11-.28-.32.27c.42-2.07.86-4.3,1.31-6.54v-.21l.2-.05a27.19,27.19,0,0,0,6.5-2.88h0l.18-.11.18.1,5.73,3.42-.42.06,7.61-8v.42l-3.7-5.56-.11-.17.1-.17a27.17,27.17,0,0,0,2.56-6.64l.05-.19.19-.05,6.47-1.63-.24.32c-.09-3.77-.18-7.43-.26-11l.25.29-6.55-1.32H225l-.05-.17a27.32,27.32,0,0,0-2.85-6.45l-.1-.15.09-.15,3.43-5.73.05.35-8-7.63h.33l-5.57,3.68-.12.08-.13-.07a26.9,26.9,0,0,0-6.65-2.58h-.14v-.13c-.59-2.36-1.11-4.48-1.61-6.48l.2.15-11.05.22.15-.12c-.54,2.61-1,4.75-1.36,6.54v0h-.07a28.82,28.82,0,0,0-5,2l-1.19.63a1.79,1.79,0,0,1-.39.2l.37-.25c.24-.16.63-.39,1.16-.68a26,26,0,0,1,5-2.09l-.07.08c.34-1.78.76-3.93,1.27-6.55v-.12h.12l11-.32h.16V278l1.65,6.47-.16-.17a27.63,27.63,0,0,1,6.78,2.6h-.25l5.55-3.72.17-.11.15.14,8,7.6.16.16-.11.19-3.41,5.78v-.31a27.71,27.71,0,0,1,3,6.66l-.24-.22,6.55,1.31.25.05v.25c.09,3.59.18,7.25.29,11v.26l-.25.06-6.47,1.65.24-.25a27.59,27.59,0,0,1-2.62,6.81v-.35l3.7,5.56.15.22-.19.19-7.61,8-.19.19-.23-.13-5.73-3.42h.34a27.55,27.55,0,0,1-6.66,2.95l.24-.26c-.45,2.25-.9,4.48-1.32,6.55V344h-.27l-11,.26h-.44l-.06-.26c-.57-2.23-1.12-4.44-1.64-6.47l.25.24a27.7,27.7,0,0,1-6.8-2.63h.33l-5.56,3.69-.21.14-.18-.17-8-7.63-.18-.17.13-.2,3.42-5.73v.3a27.11,27.11,0,0,1-2.93-6.66l.21.2-6.54-1.33h-.21v-.21c-.08-3.88-.17-7.57-.24-11v-.19l.19,0,6.48-1.61-.17.16a27.06,27.06,0,0,1,2.71-6.81v.2l-3.67-5.57-.08-.11.1-.1,7.66-8,.06-.06h.07l4.23,2.59,1.08.68A2.42,2.42,0,0,1,184.89,287.79Z"/><path class="cls-3" d="M418.61,233.41A14.91,14.91,0,0,1,415,235l-.72,3.61-6.08.15-.9-3.56a14.85,14.85,0,0,1-3.7-1.43l-3.06,2-4.4-4.2,1.88-3.15a14.91,14.91,0,0,1-1.6-3.63l-3.61-.72-.15-6.08,3.57-.9a15.38,15.38,0,0,1,1.42-3.7l-2-3.06,4.2-4.4,3.15,1.88a14.91,14.91,0,0,1,3.63-1.6l.72-3.61,6.08-.15.9,3.57a14.83,14.83,0,0,1,3.7,1.42l3.06-2,4.4,4.2-1.88,3.15a14.91,14.91,0,0,1,1.6,3.63l3.61.72.15,6.08-3.57.9a14.83,14.83,0,0,1-1.42,3.7l2,3.06-4.2,4.4Zm-3.3-8.08a6.52,6.52,0,1,0-9.22.23,6.52,6.52,0,0,0,9.22-.23Z"/><path class="cls-3" d="M415.31,225.33a5,5,0,0,1-1.21,1.08,6.61,6.61,0,0,1-7.15,0,6.75,6.75,0,0,1-2.35-2.62A6.17,6.17,0,0,1,404,222a6.39,6.39,0,0,1-.05-2,6.65,6.65,0,0,1,5.47-5.74,6.11,6.11,0,0,1,2-.05,6.37,6.37,0,0,1,1.86.52,6.71,6.71,0,0,1,2.73,2.22,6.59,6.59,0,0,1,1.15,2.85,6.44,6.44,0,0,1-.83,4.29,4.88,4.88,0,0,1-1,1.26,7.75,7.75,0,0,0,.89-1.33,6.53,6.53,0,0,0,.69-4.18,6.37,6.37,0,0,0-7.42-5.22,6.31,6.31,0,0,0-5.17,5.43,6.05,6.05,0,0,0,0,1.9,5.86,5.86,0,0,0,.57,1.73,6.41,6.41,0,0,0,8.6,2.9c.18-.09.35-.18.51-.28A15.6,15.6,0,0,0,415.31,225.33Z"/><path class="cls-3" d="M418.61,233.41l.2.1.61.35,2.37,1.38h-.07l4.17-4.43v.13l-2.06-3v-.11a15.21,15.21,0,0,0,1.41-3.68v-.07h.07l3.57-.91-.1.13c-.06-1.91-.11-3.94-.17-6.08l.12.14-3.61-.71H425v-.09a14.74,14.74,0,0,0-1.6-3.58l-.05-.09.05-.08,1.88-3.16v.21l-4.41-4.19h.21l-3.05,2-.09.06h-.1a15,15,0,0,0-3.65-1.41h-.11v-.11c-.28-1.12-.59-2.33-.9-3.56l.18.14-6.08.15.18-.15c-.23,1.14-.47,2.37-.72,3.6v.11h-.11a14.31,14.31,0,0,0-3.58,1.58h0l-.1.06-.09-.06-3.16-1.88H400l-4.19,4.4v-.23l2,3.06.06.09-.05.1a14.6,14.6,0,0,0-1.41,3.65v.11h-.11l-3.56.89.13-.17c.05,2.07.09,4.09.14,6.08l-.13-.17,3.6.73h.1v.1a14.68,14.68,0,0,0,1.58,3.58l.05.09-.05.08c-.65,1.08-1.27,2.13-1.89,3.15v-.19l4.39,4.2h-.18l3.07-2,.07-.05h.07a15,15,0,0,0,3.66,1.43h.07v.08c.32,1.29.61,2.46.89,3.56l-.11-.08,6.08-.13-.08.07c.3-1.44.54-2.61.74-3.6h0a16.1,16.1,0,0,0,2.77-1.09l.65-.35a1.51,1.51,0,0,1,.22-.11l-.2.14-.64.37a14,14,0,0,1-2.77,1.15h0l-.7,3.6v.07h-.07l-6.08.18h0v-.08c-.28-1.11-.58-2.27-.91-3.56l.09.08a14.67,14.67,0,0,1-3.78-1.49h.14l-3.06,2-.09.06-.08-.08L396,231.74l-.09-.09.07-.11,1.87-3.15v.16a14.8,14.8,0,0,1-1.62-3.66l.12.12-3.6-.72h-.14v-.14c-.05-2-.1-4-.16-6.07v-.14h.14l3.52-1-.13.13a15.23,15.23,0,0,1,1.44-3.75v.19l-2-3-.08-.13.1-.1,4.19-4.41.1-.11.13.08,3.16,1.88h-.19a14.8,14.8,0,0,1,3.66-1.62l-.13.14.73-3.6v-.15h.15l6.07-.15h.15v.14c.31,1.23.61,2.45.89,3.56l-.13-.13a14.66,14.66,0,0,1,3.74,1.45h-.18l3.06-2,.12-.08.1.1,4.4,4.2.09.09-.07.11c-.65,1.1-1.3,2.18-1.88,3.15v-.16a14.77,14.77,0,0,1,1.61,3.66l-.12-.1,3.61.73h.11v.12c0,2.13.09,4.16.13,6.08v.1h-.1l-3.57.89.09-.09a15,15,0,0,1-1.44,3.72v-.11l2,3.06v.07l-.06,0c-1.71,1.79-3.13,3.26-4.21,4.38h0l-2.25-1.39-.6-.37Z"/><path class="cls-3" d="M367.12,218.05h0l1.45,5.72a24.35,24.35,0,0,1,5.94,2.29l4.92-3.28h0l7.1,6.76h0l-3,5.07a24.18,24.18,0,0,1,2.58,5.81l5.8,1.17h0l.24,9.8h0l-5.74,1.55a24.35,24.35,0,0,1-2.29,5.94l3.28,4.93h0l-6.76,7.1h0l-5.07-3a23.49,23.49,0,0,1-5.82,2.58l-1.16,5.81h0l-9.8.24h0l-1.45-5.72a24.28,24.28,0,0,1-5.93-2.29l-4.93,3.28h0l-7.1-6.76h0l3-5.07a23.84,23.84,0,0,1-2.57-5.82L334,253h0l-.24-9.79h0l5.73-1.44a23.93,23.93,0,0,1,2.28-5.94l-3.27-4.93h0l6.75-7.1h0l5.06,3a24.4,24.4,0,0,1,5.82-2.57l1.17-5.81h0Zm7.39,8.07h0a23.9,23.9,0,0,0-5.95-2.3h0l-1.44-5.73-9.75.24-1.17,5.8h0a24.32,24.32,0,0,0-5.83,2.58h0l-5.07-3-6.73,7.07,3.28,4.92h0a24.27,24.27,0,0,0-2.29,6h0l-5.72,1.45.24,9.75,5.79,1.16h0a23.56,23.56,0,0,0,2.58,5.83h0l-3,5.07,7.07,6.72,4.91-3.27h0a23.49,23.49,0,0,0,5.95,2.29h0l1.44,5.72,9.76-.24,1.16-5.8h0a24.32,24.32,0,0,0,5.83-2.58h0l5.06,3,6.73-7.07-3.24-4.85h0a23.49,23.49,0,0,0,2.29-5.95h0l5.72-1.45-.24-9.75-5.8-1.16h0a24,24,0,0,0-2.59-5.83h0l3-5.07-7.07-6.72Zm-11.88,10.94a10.21,10.21,0,1,1-.26,0Zm7.6,17.75h0a10.48,10.48,0,0,0-7.59-17.7h-.26a10.5,10.5,0,0,0,.25,21h.26a10.42,10.42,0,0,0,7.34-3.25Z"/><path class="cls-1" d="M370.24,254.81a7.8,7.8,0,0,1-1.94,1.73,10.47,10.47,0,0,1-6.84,1.67,10.63,10.63,0,0,1-8.46-5.83,10.12,10.12,0,0,1-1-2.94,10.3,10.3,0,0,1-.08-3.23,10.71,10.71,0,0,1,8.8-9.25,10.3,10.3,0,0,1,3.23-.08,10.07,10.07,0,0,1,3,.83,10.76,10.76,0,0,1,4.4,3.59,10.59,10.59,0,0,1,.52,11.49,7.86,7.86,0,0,1-1.63,2,25.7,25.7,0,0,0,1.43-2.14,10.45,10.45,0,0,0,1.11-6.72,10.24,10.24,0,0,0-6-7.73,10.43,10.43,0,0,0-5.89-.68,10.18,10.18,0,0,0-8.31,8.74,10.18,10.18,0,0,0,1,5.85,10.28,10.28,0,0,0,8,5.66,10.44,10.44,0,0,0,6.66-1.44A24.08,24.08,0,0,0,370.24,254.81Z"/><path class="cls-1" d="M375.55,267.81l.33.17,1,.56,3.83,2.22h-.12c1.71-1.83,4-4.23,6.7-7.13v.19l-3.3-4.91-.06-.09.05-.09a24.28,24.28,0,0,0,2.26-5.92v-.11h.11l5.73-1.47-.16.21c-.08-3.08-.17-6.35-.26-9.78l.19.23-5.8-1.16h-.15v-.14a24.27,24.27,0,0,0-2.57-5.77l-.08-.13.08-.14,3-5.08v.33l-7.09-6.73h.35l-4.92,3.28-.15.09-.15-.08a23.85,23.85,0,0,0-5.88-2.26h-.17v-.17c-.45-1.8-1-3.76-1.45-5.74l.29.23-9.78.24.29-.24-1.17,5.8v.18h-.18a23.85,23.85,0,0,0-5.75,2.55h0l-.15.1-.16-.1-5.14-3,.37-.05-6.76,7.05v-.37l3.27,4.92.1.15-.08.16a23.48,23.48,0,0,0-2.27,5.88v.17h-.18l-5.73,1.45.22-.29c.07,3.34.15,6.61.23,9.79l-.23-.27,5.8,1.17H340l.05.15a23.88,23.88,0,0,0,2.55,5.78l.08.13-.08.14-3,5.07v-.31l7.07,6.76h-.28l4.93-3.26.11-.07.11.06a23.84,23.84,0,0,0,5.89,2.29h.12v.11l1.43,5.74-.18-.13,9.79-.2-.13.11c.48-2.31.87-4.21,1.2-5.79v-.06h.06a24.73,24.73,0,0,0,4.46-1.75l1.05-.56.35-.18a1.94,1.94,0,0,1-.33.23c-.22.14-.55.34-1,.6a23.18,23.18,0,0,1-4.46,1.85l.07-.07c-.31,1.58-.68,3.48-1.13,5.8v.11h-.1l-9.79.29h-.14v-.14c-.46-1.77-.94-3.65-1.47-5.73l.14.15a24.4,24.4,0,0,1-6-2.3h.23l-4.92,3.29-.15.1-.14-.13-7.1-6.73-.14-.14.1-.17,3-5.08v.27a24.54,24.54,0,0,1-2.62-5.9l.21.19-5.8-1.15-.22,0v-.22q-.12-4.77-.25-9.78v-.23l.22-.06,5.73-1.45-.21.21a23.92,23.92,0,0,1,2.32-6v.3l-3.39-4.85-.13-.2.16-.17,6.75-7.09.16-.17.21.12,5.08,3h-.31a24.54,24.54,0,0,1,5.9-2.62l-.21.23,1.17-5.8,0-.23h.23l9.79-.23h.23l.06.23c.5,2,1,3.94,1.45,5.73l-.22-.21a24.49,24.49,0,0,1,6,2.33h-.3l4.93-3.27.18-.12.16.15c2.46,2.34,4.86,4.63,7.08,6.76l.16.14-.11.19-3,5.07v-.27a24.09,24.09,0,0,1,2.6,5.9l-.19-.17,5.8,1.17h.19v.19c.08,3.43.15,6.7.22,9.78v.17l-.16,0L386.45,253l.14-.15a23.94,23.94,0,0,1-2.33,6v-.19l3.26,4.94.07.1-.09.09c-2.76,2.87-5.05,5.24-6.78,7.05h-.12l-3.74-2.29-1-.6Z"/><rect class="cls-3" x="375.43" y="19.84" width="8.07" height="40.15" transform="translate(-0.21 2.05) rotate(-0.31)"/><rect class="cls-1" x="305.49" y="19.98" width="20.9" height="22.17" transform="matrix(1, -0.01, 0.01, 1, -0.16, 1.71)"/><rect class="cls-4" x="326.28" y="19.87" width="20.9" height="22.17" transform="matrix(1, -0.01, 0.01, 1, -0.16, 1.82)"/><path class="cls-3" d="M305.45,26.18q20.83.16,41.69-.2a.22.22,0,1,0,0-.44q-20.83-.12-41.69.26a.19.19,0,1,0,0,.38Z"/><rect class="cls-1" x="292.44" y="41.83" width="37.97" height="18.06" transform="matrix(1, -0.01, 0.01, 1, -0.27, 1.69)"/><rect class="cls-4" x="330.22" y="41.62" width="37.97" height="18.06" transform="translate(-0.27 1.89) rotate(-0.31)"/><path class="cls-3" d="M292.41,46.94c25.23.28,50.54,0,75.76-.38a.22.22,0,0,0,0-.44C343,46,317.64,46,292.42,46.56a.2.2,0,0,0-.19.19.19.19,0,0,0,.19.19Z"/><rect class="cls-3" x="278.22" y="60.01" width="147.09" height="6.47"/><rect class="cls-3" x="302.3" y="63.12" width="5.97" height="22.08"/><rect class="cls-3" x="391.44" y="63.12" width="5.97" height="22.08"/><rect class="cls-1" x="383.35" y="4.87" width="8.07" height="55.22" transform="translate(-0.17 2.1) rotate(-0.31)"/><rect class="cls-4" x="391.46" y="15.16" width="12.54" height="44.75" transform="translate(-0.2 2.15) rotate(-0.31)"/><path class="cls-3" d="M403.79,23.77a93.71,93.71,0,0,1-12.54,0A90.48,90.48,0,0,1,403.79,23.77Z"/><path class="cls-3" d="M403.79,21.94a93.71,93.71,0,0,1-12.54,0A90.48,90.48,0,0,1,403.79,21.94Z"/><path class="cls-3" d="M403.79,53.16a90.48,90.48,0,0,1-12.54,0A93.71,93.71,0,0,1,403.79,53.16Z"/><path class="cls-3" d="M403.79,51.28a90.48,90.48,0,0,1-12.54,0A93.71,93.71,0,0,1,403.79,51.28Z"/><path class="cls-3" d="M397.72,47.18c-.12,0-.21-4.51-.21-10.08S397.6,27,397.72,27s.22,4.52.22,10.09S397.84,47.18,397.72,47.18Z"/><rect class="cls-1" x="403.93" y="26.13" width="13.65" height="33.78"/><path class="cls-3" d="M389.43,14.29a2.32,2.32,0,1,1-2.31-2.35,2.32,2.32,0,0,1,2.31,2.35Z"/><rect class="cls-3" x="386.4" y="20.67" width="1.43" height="32.85"/><polygon class="cls-1" points="317.72 398.94 323.18 434.86 354.94 434.86 362.31 399.46 317.72 398.94"/><path class="cls-2" d="M357.87,421.94c0,.11-8.13.19-18.17.19s-18.18-.08-18.18-.19,8.14-.18,18.18-.18S357.87,421.86,357.87,421.94Z"/><path class="cls-2" d="M358,420.2c0,.1-8.2.18-18.3.18s-18.3-.08-18.3-.18,8.19-.19,18.3-.19S358,420.09,358,420.2Z"/><path class="cls-2" d="M357.93,418.2c0,.1-8.19.19-18.29.19s-18.3-.09-18.3-.19,8.19-.19,18.3-.19S357.93,418.1,357.93,418.2Z"/><path class="cls-2" d="M326.83,432.81a28.07,28.07,0,0,1-1-4.52,28.43,28.43,0,0,1-.61-4.59,59.86,59.86,0,0,1,1.58,9.11Z"/><path class="cls-2" d="M329,432.43a108.51,108.51,0,0,1-.6-8.84A21.75,21.75,0,0,1,329,428,21.26,21.26,0,0,1,329,432.43Z"/><path class="cls-2" d="M332.93,432.43a22.87,22.87,0,0,1-.81-4.49,22.12,22.12,0,0,1-.24-4.6,36.57,36.57,0,0,1,.61,4.55A40.56,40.56,0,0,1,332.93,432.43Z"/><path class="cls-2" d="M335.69,432.62a36.74,36.74,0,0,1-.3-9.21,117.83,117.83,0,0,1,.3,9.21Z"/><path class="cls-2" d="M340.59,432.43a24.5,24.5,0,0,1-.34-4.36,26.69,26.69,0,0,1,0-4.38,56.38,56.38,0,0,1,.34,8.74Z"/><path class="cls-2" d="M344.12,432.62a55.19,55.19,0,0,1,.07-9,26.17,26.17,0,0,1,.15,4.51A28.09,28.09,0,0,1,344.12,432.62Z"/><path class="cls-2" d="M347.51,432.14a60,60,0,0,1,.91-9.4,28.63,28.63,0,0,1-.27,4.72A29.59,29.59,0,0,1,347.51,432.14Z"/><path class="cls-2" d="M351.83,431.67a15.93,15.93,0,0,1,.54-4,15.34,15.34,0,0,1,1.18-3.87,35.49,35.49,0,0,1-.82,3.95A33.18,33.18,0,0,1,351.83,431.67Z"/><path class="cls-1" d="M348.77,328.05v.18l-.15.5-.61,1.94c-.27.84-.59,1.87-.93,3.08s-.77,2.56-1.14,4.09-.84,3.19-1.24,5-.81,3.75-1.23,5.79c-.76,4.1-1.45,8.62-1.94,13.41s-.68,9.36-.74,13.53c0,2.08,0,4.06,0,5.91s.13,3.58.23,5.15.21,3,.31,4.24.21,2.32.31,3.2.16,1.53.21,2v.53a4.8,4.8,0,0,0-.08-.52c-.07-.49-.16-1.16-.28-2s-.26-1.95-.37-3.2-.28-2.67-.37-4.24-.22-3.3-.27-5.16-.08-3.84-.09-5.93c0-4.17.25-8.76.72-13.56s1.19-9.33,2-13.43c.42-2.05.8-4,1.26-5.8s.86-3.48,1.28-5,.84-2.88,1.2-4.08.7-2.23,1-3.06.5-1.45.67-1.92l.18-.5A.77.77,0,0,1,348.77,328.05Z"/><path class="cls-1" d="M343,350.29a11.82,11.82,0,0,1,4.94-6.23,2.79,2.79,0,0,1,2.61-.48c1.11.53,1.2,2.09.87,3.28a8.71,8.71,0,0,1-3.6,4.9,7.31,7.31,0,0,1-5.39,1.36"/><path class="cls-1" d="M341.12,365.31c.82-3.1,3.3-7.5,5.87-9.42a3.57,3.57,0,0,1,1.33-.71,1.5,1.5,0,0,1,1.42.31,2.16,2.16,0,0,1,.32,2.05,12.49,12.49,0,0,1-9.26,9.33"/><path class="cls-1" d="M340.58,378.54a18,18,0,0,1,5.92-7.44,2.84,2.84,0,0,1,2.06-.74c1.12.21,1.63,1.58,1.53,2.71-.2,2.34-2,4.22-3.83,5.67a23.39,23.39,0,0,1-5.47,2.81"/><path class="cls-1" d="M340.88,388a17.53,17.53,0,0,1,5-5.73,3.5,3.5,0,0,1,1.51-.67,1.53,1.53,0,0,1,1.48.56c.51.74,0,1.74-.51,2.46a14.4,14.4,0,0,1-7.18,5.27"/><path class="cls-1" d="M340.63,384.18a56,56,0,0,0-7.2-7.33c-.4-.34-.92-.71-1.43-.54a1.08,1.08,0,0,0-.66,1,2.8,2.8,0,0,0,.27,1.2,14,14,0,0,0,9.27,7.79"/><path class="cls-1" d="M340.86,371.81l-5.65-6.87a6.78,6.78,0,0,0-1.84-1.74,2.07,2.07,0,0,0-3.18,2.28,6,6,0,0,0,1.1,2.26,16.68,16.68,0,0,0,4.12,4.38c1.66,1.14,3.17,1.88,5.16,1.59"/><path class="cls-1" d="M341.65,357.94A19.66,19.66,0,0,0,336,349.4a3.24,3.24,0,0,0-1.48-.87,2.5,2.5,0,0,0-2.6,1.82,4.69,4.69,0,0,0,.52,3.74,9.63,9.63,0,0,0,2.66,2.81,22.49,22.49,0,0,0,6.28,3.4"/><path class="cls-1" d="M343.91,345.47c-.55-4-2.63-7.32-5-10.55-.51-.69-1.22-1.41-2.06-1.28a1.62,1.62,0,0,0-1.18,1,3.79,3.79,0,0,0-.22,1.6,12.33,12.33,0,0,0,8,11"/><path class="cls-1" d="M345.49,339.13a33.6,33.6,0,0,1-.21-6.18,11,11,0,0,1,2-5.75,4.76,4.76,0,0,1,2.05-1.64,2.62,2.62,0,0,1,2.52.33,2.73,2.73,0,0,1,.86,2.22,7,7,0,0,1-.63,2.37c-1.51,3.62-4,7.63-6.64,8.65"/><path class="cls-3" d="M320.86,343.94a4.34,4.34,0,0,1,0,.51v3.74a29.22,29.22,0,0,0,.11,3c.1,2.25.32,4.92.66,7.87s.87,6.19,1.56,9.55,1.55,6.51,2.4,9.36,1.75,5.38,2.57,7.48c.38,1.05.78,2,1.11,2.82s.64,1.54.89,2.11.43,1,.57,1.34a3.8,3.8,0,0,1,.18.47,3.62,3.62,0,0,1-.25-.44l-.63-1.31c-.27-.57-.6-1.26-.95-2.09s-.77-1.75-1.17-2.81c-.85-2.09-1.75-4.62-2.64-7.47s-1.73-6-2.44-9.39-1.19-6.61-1.54-9.58-.52-5.64-.58-7.9c-.06-1.12,0-2.14-.06-3s0-1.66,0-2.29l.06-1.46A2.29,2.29,0,0,1,320.86,343.94Z"/><path class="cls-3" d="M321.74,360.27a8.48,8.48,0,0,1,2-5.31,2.08,2.08,0,0,1,1.68-.89c.87.13,1.27,1.17,1.3,2.05a6.22,6.22,0,0,1-1.4,4.11,5.21,5.21,0,0,1-3.38,2.08"/><path class="cls-3" d="M323.66,370.94a14.29,14.29,0,0,1,2-7.68,2.75,2.75,0,0,1,.75-.77,1.11,1.11,0,0,1,1-.1,1.58,1.58,0,0,1,.66,1.34,8.94,8.94,0,0,1-4.3,8.34"/><path class="cls-3" d="M326.12,380a13,13,0,0,1,2.42-6.34,2,2,0,0,1,1.25-.94c.81-.11,1.45.72,1.63,1.51.36,1.64-.45,3.3-1.39,4.69a16.9,16.9,0,0,1-3.12,3.09"/><path class="cls-3" d="M328.4,386.44a12.47,12.47,0,0,1,2.19-5,2.64,2.64,0,0,1,.88-.78,1.09,1.09,0,0,1,1.13.06c.51.4.39,1.18.18,1.79a10.31,10.31,0,0,1-3.75,5.13"/><path class="cls-3" d="M327.4,383.86a39.8,39.8,0,0,0-6.48-3.44,1.17,1.17,0,0,0-1.09-.06.76.76,0,0,0-.24.8,2.08,2.08,0,0,0,.44.76,10,10,0,0,0,8,3.31"/><path class="cls-3" d="M324.89,375.39l-5.33-3.45a5,5,0,0,0-1.62-.79,1.45,1.45,0,0,0-1.65,2.22,4.28,4.28,0,0,0,1.24,1.3,12,12,0,0,0,3.75,2.1,4.86,4.86,0,0,0,3.85,0"/><path class="cls-3" d="M322.43,365.74a14,14,0,0,0-5.71-4.59,2.28,2.28,0,0,0-1.2-.27,1.77,1.77,0,0,0-1.37,1.8,3.27,3.27,0,0,0,1.16,2.43,6.88,6.88,0,0,0,2.41,1.34,15.83,15.83,0,0,0,5,1"/><path class="cls-3" d="M321.29,356.8a16.45,16.45,0,0,0-5.7-6.1,1.72,1.72,0,0,0-1.67-.43,1.15,1.15,0,0,0-.59,1,2.72,2.72,0,0,0,.19,1.13,8.8,8.8,0,0,0,7.83,5.78"/><path class="cls-3" d="M321,352.14a22.86,22.86,0,0,1-1.47-4.16,7.89,7.89,0,0,1,.15-4.36,3.41,3.41,0,0,1,1.05-1.56,1.87,1.87,0,0,1,1.79-.31,2,2,0,0,1,1.06,1.32,5.15,5.15,0,0,1,.08,1.75c-.25,2.79-1.1,6.07-2.66,7.32"/><path class="cls-1" d="M361,343.54a4.34,4.34,0,0,1,0,.51l.05,1.45v5.29c-.07,2.25-.26,4.93-.58,7.9s-.85,6.2-1.54,9.57-1.57,6.54-2.44,9.4-1.8,5.37-2.65,7.46c-.4,1.06-.82,2-1.17,2.81s-.67,1.53-.95,2.09l-.63,1.31a2.7,2.7,0,0,1-.24.44,3.75,3.75,0,0,1,.17-.47c.15-.34.34-.78.57-1.34s.56-1.28.89-2.11.74-1.76,1.12-2.82c.81-2.1,1.69-4.63,2.56-7.47s1.69-6,2.4-9.37,1.2-6.59,1.57-9.54.55-5.63.65-7.87c.08-1.13.08-2.15.11-3s0-1.66,0-2.29V344A1.72,1.72,0,0,1,361,343.54Z"/><path class="cls-1" d="M360.12,359.94a8.42,8.42,0,0,0-2-5.31,2,2,0,0,0-1.67-.89c-.87.13-1.27,1.17-1.3,2.05a6.21,6.21,0,0,0,1.39,4.11,5.27,5.27,0,0,0,3.38,2.09"/><path class="cls-1" d="M358.21,370.56a14.29,14.29,0,0,0-2-7.68,2.79,2.79,0,0,0-.76-.77,1.11,1.11,0,0,0-1-.1,1.52,1.52,0,0,0-.66,1.34,8.9,8.9,0,0,0,4.3,8.34"/><path class="cls-1" d="M355.73,379.68a12.94,12.94,0,0,0-2.43-6.34,2,2,0,0,0-1.25-.94c-.8-.1-1.45.72-1.62,1.51-.37,1.64.45,3.3,1.39,4.69a16.9,16.9,0,0,0,3.12,3.09"/><path class="cls-1" d="M353.48,386.09a12.29,12.29,0,0,0-2.2-5,2.53,2.53,0,0,0-.88-.78,1.12,1.12,0,0,0-1.13.06c-.5.4-.39,1.18-.18,1.79a10.33,10.33,0,0,0,3.76,5.13"/><path class="cls-1" d="M354.48,383.51a40.49,40.49,0,0,1,6.47-3.44,1.19,1.19,0,0,1,1.1-.06.76.76,0,0,1,.24.8,2.1,2.1,0,0,1-.45.76,9.93,9.93,0,0,1-8,3.31"/><path class="cls-1" d="M357,375l5.34-3.47a4.45,4.45,0,0,1,1.62-.79,1.47,1.47,0,0,1,1.86.9,1.45,1.45,0,0,1-.18,1.31,4.16,4.16,0,0,1-1.23,1.31,12.35,12.35,0,0,1-3.75,2.09,4.88,4.88,0,0,1-3.86,0"/><path class="cls-1" d="M359.45,365.39a14,14,0,0,1,5.71-4.59,2.24,2.24,0,0,1,1.19-.27,1.79,1.79,0,0,1,1.38,1.8,3.38,3.38,0,0,1-1.16,2.44,7.24,7.24,0,0,1-2.41,1.34,16.11,16.11,0,0,1-5,.95"/><path class="cls-1" d="M360.58,356.45c1.23-2.6,3.37-4.42,5.7-6.1a1.73,1.73,0,0,1,1.68-.43,1.18,1.18,0,0,1,.58.95,2.57,2.57,0,0,1-.19,1.13,8.8,8.8,0,0,1-7.83,5.79"/><path class="cls-1" d="M360.87,351.79a22.86,22.86,0,0,0,1.47-4.16,7.89,7.89,0,0,0-.16-4.36,3.34,3.34,0,0,0-1-1.55,1.87,1.87,0,0,0-1.79-.32,2,2,0,0,0-1.07,1.33,5.09,5.09,0,0,0-.07,1.74c.24,2.8,1.09,6.07,2.66,7.32"/><path class="cls-1" d="M314.12,391.82v6.73a2.65,2.65,0,0,0,2.65,2.64h46a2.65,2.65,0,0,0,2.65-2.64v-6.73Z"/><polygon class="cls-3" points="318.06 401.19 318.44 403.33 360.88 406.36 361.95 401.19 318.06 401.19"/><rect class="cls-3" x="330.92" y="102" width="60.02" height="62.56"/><rect class="cls-2" x="326.85" y="102" width="60.02" height="62.56"/><path class="cls-3" d="M386.89,164.58h-60V101.94h60Zm-60,0h60V102h-60Z"/><rect class="cls-2" x="334.92" y="110.41" width="43.88" height="45.74"/><path class="cls-3" d="M334.92,156.46a6.85,6.85,0,0,1-1.08,1.26c-.7.74-1.69,1.74-2.79,2.83s-2.12,2-2.87,2.74a7.53,7.53,0,0,1-1.26,1.06,6.44,6.44,0,0,1,1.07-1.26c.7-.74,1.69-1.74,2.8-2.83s2.12-2.06,2.87-2.75A7,7,0,0,1,334.92,156.46Z"/><path class="cls-3" d="M378.81,156.35a6.79,6.79,0,0,1,1.25,1.08c.74.7,1.75,1.69,2.83,2.79s2.06,2.12,2.75,2.87a7,7,0,0,1,1.05,1.26,6.38,6.38,0,0,1-1.25-1.07c-.74-.7-1.74-1.69-2.83-2.8s-2.07-2.12-2.75-2.87A6.7,6.7,0,0,1,378.81,156.35Z"/><path class="cls-3" d="M378.69,110.53a6.85,6.85,0,0,1,1.08-1.26c.7-.74,1.68-1.74,2.79-2.82s2.12-2.06,2.86-2.75a6.83,6.83,0,0,1,1.27-1,7.45,7.45,0,0,1-1.07,1.24c-.71.74-1.69,1.74-2.8,2.83s-2.12,2.06-2.87,2.75A7.25,7.25,0,0,1,378.69,110.53Z"/><path class="cls-3" d="M334.8,110.65a7.71,7.71,0,0,1-1.26-1.09c-.74-.7-1.74-1.68-2.82-2.79s-2.06-2.12-2.75-2.86a6.4,6.4,0,0,1-1.05-1.27,6.79,6.79,0,0,1,1.25,1.08c.74.7,1.74,1.68,2.83,2.79s2.06,2.12,2.75,2.87A6.4,6.4,0,0,1,334.8,110.65Z"/><path class="cls-3" d="M378.69,156.15a.81.81,0,0,1,0-.22V143.5c0-8-.05-19.42-.08-33.09l.17.17H335l.2-.2v45.74l-.17-.16,31.69.08,8.9.05h0l-8.86,0-31.8.08h-.16v-46.1H379v.17c0,13.71-.06,25.16-.08,33.2v12.34Z"/><rect class="cls-1" x="349.54" y="125.96" width="14.64" height="14.64"/></g><g id="freepik--Browser--inject-2"><rect class="cls-2" x="30.59" y="260.07" width="372.3" height="48.51" rx="22.54"/><path class="cls-5" d="M317,260.07h64.2a21.71,21.71,0,0,1,21.71,21.71v5.08a21.71,21.71,0,0,1-21.71,21.71H317v-48.5Z"/><path class="cls-6" d="M380.34,308.57l2.07-.12c.68-.07,1.52-.22,2.52-.38a24.61,24.61,0,0,0,3.37-1,22.39,22.39,0,0,0,8.17-5.38,24.24,24.24,0,0,0,3.7-5.07,22.72,22.72,0,0,0,2.28-6.75,39.64,39.64,0,0,0,.3-8,22.06,22.06,0,0,0-2-8.53A22.61,22.61,0,0,0,395,265.7a22.05,22.05,0,0,0-9.12-4.77,22.94,22.94,0,0,0-5.41-.71H337l-283.87.06a22.42,22.42,0,0,0-21.9,17.87c-.11.84-.28,1.66-.35,2.5s-.11,1.67-.1,2.52v2.54c0,.84.08,1.67.11,2.51A22.29,22.29,0,0,0,50,308.12a19.75,19.75,0,0,0,2.43.21c.81.06,1.64,0,2.46,0h80.27l127.6.05,86,.07h0l-86,.07H52.43a17.17,17.17,0,0,1-2.48-.21A22.71,22.71,0,0,1,30.49,288c0-.85-.11-1.71-.12-2.55v-2.54c0-.84.07-1.71.11-2.56s.23-1.69.35-2.54a22.85,22.85,0,0,1,22.29-18l283.84.06h43.51a22.94,22.94,0,0,1,5.47.73,22.11,22.11,0,0,1,9.2,4.83,23.06,23.06,0,0,1,5.77,7.72,22.49,22.49,0,0,1,2,8.61,40.39,40.39,0,0,1-.32,8,23.33,23.33,0,0,1-2.32,6.79,23.94,23.94,0,0,1-3.74,5.09,22.34,22.34,0,0,1-8.23,5.37,24.88,24.88,0,0,1-3.39,1c-1,.15-1.84.31-2.53.36Z"/></g><g id="freepik--Character--inject-2"><path class="cls-6" d="M215.31,92.85a157.57,157.57,0,0,0,.05,39c.41,3.28,1.11,6.86,3.69,8.91,3.08,2.44,7.91,1.59,10.71-1.16s3.84-6.88,3.79-10.81-1.06-7.76-1.77-11.62c-.94-5.09-1.41-10.37-3.69-15s-7-8.6-12.12-8.08"/><path class="cls-6" d="M222.89,54.76c5.87-5.78,18.46-4.31,25,.66s10,13.16,11.38,21.29,1.06,16.45,1.73,24.66,2.52,16.68,7.59,23.18c2.17,2.77,4.88,5.12,6.81,8.06a18.5,18.5,0,0,1,.76,19,16.72,16.72,0,0,1-17,8c-6.82-1.29-12.06-7.1-14.67-13.53s-3-13.51-3.57-20.43a563.77,563.77,0,0,0-8.68-64.18"/><path class="cls-7" d="M215.71,118.28l6.11-1.66h26.93l14.6,8.62s-25.53,11.49-35,6.88a26.58,26.58,0,0,1-12.65-13.07"/><path class="cls-7" d="M249,69.53l.16-3.59-21.5-4.78c-6.65-.92-14.07,5.55-14.7,12.23-.7,7.42-1.26,16.51-.55,22.08,1.42,11.22,9.93,12.9,9.93,12.9l.91,24.51,24.68,1.06Z"/><path class="cls-6" d="M216.12,81.22a1.43,1.43,0,0,0,1.33,1.49A1.38,1.38,0,0,0,219,81.48v0A1.43,1.43,0,0,0,217.64,80a1.37,1.37,0,0,0-1.52,1.21Z"/><path class="cls-6" d="M215.12,77.35c.17.19,1.28-.58,2.82-.52s2.65.85,2.82.67-.09-.42-.57-.8a3.92,3.92,0,0,0-4.5-.12A1.35,1.35,0,0,0,215.12,77.35Z"/><path class="cls-6" d="M231.18,81.94a1.43,1.43,0,0,0,1.33,1.49A1.38,1.38,0,0,0,234,82.2v0a1.43,1.43,0,0,0-1.34-1.48,1.36,1.36,0,0,0-1.51,1.2Z"/><path class="cls-6" d="M230.28,78.15c.17.19,1.28-.58,2.82-.53s2.64.86,2.82.68-.09-.43-.57-.8a4,4,0,0,0-2.25-.77,3.75,3.75,0,0,0-2.25.65C230.37,77.73,230.2,78.06,230.28,78.15Z"/><path class="cls-6" d="M224.34,90.19a10.05,10.05,0,0,0-2.49-.53c-.39,0-.76-.14-.82-.41a2,2,0,0,1,.3-1.16c.4-.94.82-1.92,1.25-3a55.67,55.67,0,0,0,2.86-7.75A54.58,54.58,0,0,0,222,84.85l-1.21,3a2.29,2.29,0,0,0-.25,1.54,1,1,0,0,0,.63.6,3,3,0,0,0,.66.11A9.82,9.82,0,0,0,224.34,90.19Z"/><path class="cls-8" d="M222.33,108.39a29.55,29.55,0,0,0,15.44-3.53s-3.78,7.72-15.3,6.34Z"/><path class="cls-8" d="M224.87,93.94a2.81,2.81,0,0,1,2.52-1,2.55,2.55,0,0,1,1.72,1,1.63,1.63,0,0,1,.07,1.84,1.88,1.88,0,0,1-2,.45A5.8,5.8,0,0,1,225.25,95a1.71,1.71,0,0,1-.42-.47.5.5,0,0,1,0-.57"/><path class="cls-6" d="M228.84,91.4c-.25,0-.31,1.65-1.78,2.79s-3.24.9-3.26,1.13.39.34,1.14.38a4.11,4.11,0,0,0,2.72-.85A3.65,3.65,0,0,0,229,92.51C229.12,91.81,229,91.39,228.84,91.4Z"/><path class="cls-6" d="M230.12,73.5c.14.42,1.68.27,3.48.54s3.25.82,3.5.45c.11-.18-.13-.58-.71-1a5.68,5.68,0,0,0-2.57-1,5.92,5.92,0,0,0-2.74.23C230.35,72.94,230,73.3,230.12,73.5Z"/><path class="cls-6" d="M215.36,72.07c.26.36,1.34,0,2.61.05s2.35.31,2.61-.05c.11-.18,0-.53-.51-.88a3.78,3.78,0,0,0-4.2,0C215.41,71.54,215.25,71.94,215.36,72.07Z"/><path class="cls-5" d="M248.63,87.08c2-1.29,2.8-12.42,2.72-17s-2.53-8.64-5.75-11.88c-3.48-3.5-7.56-4.73-12.48-5.26-2.76-.3-5.72-.66-8.39.1s-4.16,1.7-5.46,4.15c-.72,1.36-.91,3.3.34,4.19s2.82.17,4.23-.23c3.74-1.07,7.84.14,11.07,2.3s5.77,5.21,8.26,8.21c3.23,3.91,4.76,10.41,5.48,15.42"/><path class="cls-6" d="M211,61.06c1.43-4.54,10.27-10.16,19.63-6,4.3.15,8.48.86,13.06,5,8.27,7.55,5.1,26,5.1,26a41.88,41.88,0,0,1-13.19-10.65C230.26,69,227.35,64,226.31,61h0c-8.64,2.08-11.9,9.63-13.42,12.9C210.94,71.72,208.44,69.07,211,61.06Z"/><path class="cls-7" d="M246.93,85c.18-.09,7.36-2.51,7.43,4.92s-7.4,6-7.41,5.75S246.93,85,246.93,85Z"/><path class="cls-8" d="M249.19,92.83a2.46,2.46,0,0,0,.35.19,1.24,1.24,0,0,0,1,0A3.22,3.22,0,0,0,252,90.13a4.34,4.34,0,0,0-.38-1.84,1.52,1.52,0,0,0-1-1,.65.65,0,0,0-.76.36c-.1.21,0,.36-.09.37s-.16-.12-.1-.43a.88.88,0,0,1,.28-.47,1,1,0,0,1,.72-.19A1.8,1.8,0,0,1,252,88.07a4.48,4.48,0,0,1,.47,2.06,3.31,3.31,0,0,1-1.86,3.23,1.37,1.37,0,0,1-1.18-.19C249.2,93,249.12,92.85,249.19,92.83Z"/><path class="cls-7" d="M167,250.76l-15,1.66-9.13,5.73s-.18,1.86,2.42,1.56l5.15-2.17L146.33,262s1,1.79,3.23.54a12.67,12.67,0,0,0,3.62-3.14l9-.63s-6.8,6.54-5.55,8.24,2.06,1.34,3,.72,1.53-2.78,3.76-3.49,5.94-2.81,9.94-4.71c3.45-1.63,6.94-13.3,6.94-13.3L168.78,244Z"/><path class="cls-8" d="M161,254.58c0,.19-3.78.92-8.51,1.63h-.12l.19-.1c-3.3,3.38-6.07,6-6.21,5.87s2.42-3,5.72-6.35l.08-.09h.24C157.12,254.82,161,254.39,161,254.58Z"/><polygon class="cls-7" points="256.78 344.95 253.99 320.77 231.57 327.05 237.23 350.24 256.78 344.95"/><path class="cls-5" d="M257,344.94l3.79,28.18,9.43,21.43a2.91,2.91,0,0,1-1.49,3.84l-.19.07h0a2.91,2.91,0,0,1-2.65-.34c-4.93-3.44-23-16.16-23.19-18.24-.19-2.41-6-29.46-6-29.46Z"/><g class="cls-9"><path class="cls-10" d="M268.57,398.41l-26.14-20.47.19,1.19a4.36,4.36,0,0,0,1.47,2.64c2.12,1.82,8.06,6.7,21.75,16.31A2.89,2.89,0,0,0,268.57,398.41Z"/></g><g class="cls-9"><path class="cls-10" d="M246.77,367.94a1.75,1.75,0,0,1,.83,2.2,1.69,1.69,0,0,1-2.17.85,1.85,1.85,0,0,1-.87-2.33,1.75,1.75,0,0,1,2.35-.63"/></g><path class="cls-6" d="M260.21,387.15a8.48,8.48,0,0,1,2.12-2.57c1.51-1.1,3.13-.95,3.14-1.13s-.38-.24-1.05-.22a4.41,4.41,0,0,0-2.45.84,4.53,4.53,0,0,0-1.62,2C260.12,386.72,260.12,387.14,260.21,387.15Z"/><path class="cls-6" d="M262.81,390.6c.15.1.91-1,2.29-1.6a23,23,0,0,1,2.69-.79c.06-.16-1.39-.54-3,.22S262.65,390.55,262.81,390.6Z"/><path class="cls-6" d="M255.73,382.94c.15.11,1.31-1.52,3.37-2.71s4-1.44,4-1.63-2.13-.22-4.33,1.09S255.58,382.86,255.73,382.94Z"/><path class="cls-6" d="M253.86,374.45c.1.15,1.55-.74,3.56-1.13s3.68-.16,3.71-.34-1.68-.72-3.84-.27S253.75,374.33,253.86,374.45Z"/><path class="cls-6" d="M252.53,366.2c.12.15,1.53-1,3.68-1.27s3.8.52,3.87.35-.33-.37-1-.65a6.3,6.3,0,0,0-2.92-.32,6.18,6.18,0,0,0-2.75,1C252.76,365.76,252.48,366.15,252.53,366.2Z"/><path class="cls-6" d="M255.91,363.37a2.43,2.43,0,0,0-.13-1.07,7.49,7.49,0,0,0-1.28-2.65,3.34,3.34,0,0,0-1.65-1.34,1.19,1.19,0,0,0-1.27.46,1.9,1.9,0,0,0-.24,1.34,4.11,4.11,0,0,0,4.16,3.2,4.77,4.77,0,0,0,4.24-3.2,1.65,1.65,0,0,0-.13-1.37,1.16,1.16,0,0,0-1.29-.42,4,4,0,0,0-1.69,1.26,8.51,8.51,0,0,0-1.58,2.48,2.48,2.48,0,0,0-.27,1,13.2,13.2,0,0,1,2.17-3.22,3.75,3.75,0,0,1,1.5-1,.61.61,0,0,1,.7.22,1.09,1.09,0,0,1,0,.9,4.26,4.26,0,0,1-3.71,2.74,3.58,3.58,0,0,1-3.57-2.67A1.39,1.39,0,0,1,252,359a.63.63,0,0,1,.69-.27,3,3,0,0,1,1.43,1.17A11.13,11.13,0,0,1,255.91,363.37Z"/><path class="cls-6" d="M204.92,206.46l-.41,6.1s-5.15,9.75-5.62,18.49c-.28,5.07-.39,12.55-.44,17.93a22.67,22.67,0,0,0,3.46,12.25l10.32,16.55-1.42,18.69,18.71,37.47,27.69-7-3.28-69.15-11.14-36.52-2.12-17.33Z"/><path class="cls-6" d="M260.7,202.66l.49,8s22.24-47.36,52.58-53.2c19.71-3.8,27.48,17.69,20.56,34.75-4.16,10.27-21.44,29.93-21.46,30.38-.55,10.55-11.29,9-11.29,9s-13.46,21.25-17.46,25.4c-2.74,2.85-31.65,1.83-31.65,1.83L243.38,240l-3.66-36Z"/><path class="cls-11" d="M222.25,252.31a9.13,9.13,0,0,1-.52,1.71c-.41,1.2-.93,2.74-1.57,4.58-1.31,3.87-3,9.25-4.68,15.27s-2.88,11.53-3.71,15.53c-.39,1.91-.71,3.51-1,4.75a8.56,8.56,0,0,1-.42,1.73,9.68,9.68,0,0,1,.18-1.78c.14-1.13.4-2.77.76-4.79.72-4,1.9-9.57,3.54-15.61s3.44-11.41,4.87-15.25c.71-1.92,1.32-3.47,1.77-4.52A9.66,9.66,0,0,1,222.25,252.31Z"/><path class="cls-11" d="M215.35,244.85a39.85,39.85,0,0,1-.44,4.5c-.32,2.78-.69,6.61-.9,10.86s-.21,8.11-.16,10.9a37.87,37.87,0,0,1,0,4.52,4.43,4.43,0,0,1-.2-1.2c-.09-.78-.18-1.91-.26-3.31a105.06,105.06,0,0,1,0-10.94q.27-5.48,1.08-10.89c.22-1.38.42-2.5.59-3.26A4.43,4.43,0,0,1,215.35,244.85Z"/><path class="cls-11" d="M257.21,325.47a1.93,1.93,0,0,1,0-.34,4.94,4.94,0,0,0-.08-1c0-.91-.14-2.18-.24-3.8-.19-3.35-.45-8.11-.78-14-.6-11.85-1.43-28.15-2.33-46.15-.29-4.5-.19-8.94-1.14-13A36.37,36.37,0,0,0,248,235.94a34.58,34.58,0,0,0-15.24-13.43,36.84,36.84,0,0,0-13.45-3.3c-1.64-.07-2.92,0-3.79,0l-1,0h-.34a26.69,26.69,0,0,1,5.13-.3A35.84,35.84,0,0,1,233,222.09a35.34,35.34,0,0,1,8.25,5.12,35.86,35.86,0,0,1,7.31,8.42A36.84,36.84,0,0,1,253.2,247c1,4.21.87,8.67,1.16,13.15.84,18,1.6,34.3,2.15,46.16.24,5.87.43,10.64.57,14,0,1.62.1,2.89.13,3.81v1C257.21,325.41,257.23,325.47,257.21,325.47Z"/><path class="cls-11" d="M244.54,227.07c-.13-.12,2.52-3.55,5.92-7.67s6.28-7.37,6.42-7.26-2.51,3.55-5.92,7.67S244.68,227.18,244.54,227.07Z"/><path class="cls-11" d="M288.84,199a123.46,123.46,0,0,1,8.62-12.31,31.65,31.65,0,0,1,4.12-4.61,54.56,54.56,0,0,1-3.59,5.07c-2.25,3.09-5.29,7.42-8.35,12.41s-5.94,9.56-6.47,13.38a12.72,12.72,0,0,0,.58,6.12,3.53,3.53,0,0,1-.81-1.51,10.6,10.6,0,0,1-.43-4.71,19.55,19.55,0,0,1,2.2-6.6"/><path class="cls-11" d="M304.28,175.94c.14.13-.94,1.48-1.61,3.45s-.69,3.69-.89,3.7-.47-1.81.28-3.91A6.13,6.13,0,0,1,304.28,175.94Z"/><path class="cls-11" d="M241.61,276.18c-.16-.08,1.23-3.33,3.11-7.26a51.36,51.36,0,0,1,3.7-7c.16.05-1.23,3.32-3.11,7.25S241.77,276.25,241.61,276.18Z"/><path class="cls-11" d="M225.94,265.43c.17-.06.88,1.45,1.59,3.38a12.27,12.27,0,0,1,1,3.6A11.6,11.6,0,0,1,227,269C226.25,267.1,225.77,265.5,225.94,265.43Z"/><path class="cls-5" d="M190,139.08c1.6-13.84,10.48-16.94,10.48-16.94l1.3,81.77-10.2,42.23a9.46,9.46,0,0,1-11.41,7c-.2,0-.39-.1-.59-.16l-20.66-6.28S188.38,152.94,190,139.08Z"/><path class="cls-5" d="M276.19,131.94s5.11,11.63,5.11,17.75,6.12,45.77,0,54.17-18.18,8.08-21.57,7.83c-4.67-.39-26.45-40.67-25.56-41.19l12.25-2.66s8.58.53,12.67,4,8.09-.53,8.09-.53l8.65-37.17"/><path class="cls-5" d="M259.12,122.14s14,4.8,17.07,9.8-14.59,70.42-14.59,70.42l-56.68,4.06s-4.47-.81-5.69-4.87,1.22-79.45,1.22-79.45l15.77-5.58s6.78,7,11.66,8.43S259.12,122.14,259.12,122.14Z"/><path class="cls-6" d="M204,140.09a2.54,2.54,0,0,1,.06.67c0,.52,0,1.16.06,1.93v7.11q-.28,11.72-1.74,23.37c-.57,4.54-1.25,8.86-1.95,12.76s-1.46,7.39-1.38,10.37a14.39,14.39,0,0,0,1.62,6.75,20.57,20.57,0,0,0,1.46,2.13,3.37,3.37,0,0,1-.51-.45,9.35,9.35,0,0,1-1.17-1.56,14.22,14.22,0,0,1-1.86-6.86c-.14-3,.57-6.6,1.25-10.48s1.33-8.21,1.89-12.74c1.14-9.06,1.69-17.32,1.94-23.31.1-2.92.18-5.32.24-7.09a18.19,18.19,0,0,1,.06-1.93A1.89,1.89,0,0,1,204,140.09Z"/><path class="cls-6" d="M259.12,175.1a25.19,25.19,0,0,0-2-2.38,10.19,10.19,0,0,0-2.69-1.86,13.12,13.12,0,0,0-3.89-1,15.78,15.78,0,0,0-7.29.42,6.12,6.12,0,0,0-1.91,1.08c-.37.38-.59.58-.63.56s.12-.29.45-.73a5.46,5.46,0,0,1,1.92-1.34,14.69,14.69,0,0,1,7.55-.63,12.73,12.73,0,0,1,4.06,1.13,9.69,9.69,0,0,1,2.76,2.08,8.33,8.33,0,0,1,1.33,1.9A2.72,2.72,0,0,1,259.12,175.1Z"/><path class="cls-6" d="M244.36,187.59c.1,0,.55,1.53,1.59,3.93a74.55,74.55,0,0,0,4.79,9,72.45,72.45,0,0,0,5.93,8.31,19.42,19.42,0,0,0,2.14,2.21,5.76,5.76,0,0,0,.92.63,2.1,2.1,0,0,1-1.08-.43,15,15,0,0,1-2.32-2.11,61.07,61.07,0,0,1-10.8-17.46,31,31,0,0,1-1-3A4.35,4.35,0,0,1,244.36,187.59Z"/><path class="cls-6" d="M266,138.47c-.14-.09,1.15-2.13,3.28-4.2s4.19-3.32,4.28-3.18-1.76,1.61-3.83,3.64S266.12,138.59,266,138.47Z"/><path class="cls-6" d="M198.5,124.27c.09-.14,2.38,1.27,4.44,3.82s3,5.06,2.84,5.12-1.33-2.26-3.35-4.71S198.39,124.42,198.5,124.27Z"/><path class="cls-6" d="M251,196.16a16.12,16.12,0,0,1-2-3.21,46,46,0,0,1-5-17.38,14.87,14.87,0,0,1,0-3.77,33.19,33.19,0,0,1,.48,3.72,58.79,58.79,0,0,0,1.79,8.81,61.25,61.25,0,0,0,3.14,8.42A35.21,35.21,0,0,1,251,196.16Z"/><path class="cls-6" d="M272.12,179.19a19.85,19.85,0,0,1-2.1-2,49.3,49.3,0,0,0-5.32-4.57,17.84,17.84,0,0,0-3.22-2,4.18,4.18,0,0,0-2.91-.31,3.18,3.18,0,0,0-1.64,1.12c-.27.4-.33.68-.38.67s-.06-.31.17-.79a3,3,0,0,1,1.7-1.43,4.46,4.46,0,0,1,3.29.19,16.63,16.63,0,0,1,3.37,2.06,34.64,34.64,0,0,1,5.27,4.78A9.77,9.77,0,0,1,272.12,179.19Z"/><g class="cls-12"><path d="M245.67,192.15c-2.93.74-5.9-1-8.92-1.12-2.74-.14-5.36,1-8,1.71a27.55,27.55,0,0,1-17.43-1.05,4.74,4.74,0,0,1-1.76-1.09,2.21,2.21,0,0,1-.33-2.2c5.09-.05,10.17.17,15.27.12a5.88,5.88,0,0,0,3-.59,1.33,1.33,0,0,0,.54-.56s3.05-.1,4.14-.11c2.45,0,5.28.19,7.73.18,1.07,0,4.51.15,4.43.15"/></g><g class="cls-12"><path d="M262.45,170.33a23.67,23.67,0,0,1,11.67,5.74,3.87,3.87,0,0,1,.93,1.12,1.38,1.38,0,0,1,0,1.39,1.45,1.45,0,0,1-1.61.46,4.34,4.34,0,0,1-1.51-.95l-9.72-8.15"/></g><path class="cls-6" d="M265.17,142.29a24,24,0,0,1,.09,4.15c-.05,2.55-.23,6.09-.6,10s-.86,7.4-1.29,9.92a22.46,22.46,0,0,1-.86,4,30,30,0,0,1,.41-4.12c.31-2.53.73-6,1.1-9.91s.61-7.39.78-9.93A30.61,30.61,0,0,1,265.17,142.29Z"/><polygon class="cls-11" points="221.01 170.31 215.08 157.53 194.69 156.25 193.97 157.44 209.43 187.22 228.06 187.37 221.01 170.31"/><path class="cls-11" d="M220.29,171.5l-5.93-12.79L194,157.43l14.74,31,16.53.12a3.92,3.92,0,0,0,2.67-1l.15-.14Z"/><path class="cls-1" d="M204.82,163.45a1,1,0,1,0-.06-1.45,1,1,0,0,0,.06,1.45S204.81,163.44,204.82,163.45Z"/><path class="cls-7" d="M244.18,172.15l-7.88.46a11.19,11.19,0,0,0-8.45-4.71l-2.81-.18-2.06,2s-13.83-.26-14.44,1.41V172l11.75,1.53s-10-.66-10.64-.68-2.79-.34-2.82.84c0,1,1.08,1.81,2.8,2.17.7.15,9.35,1.45,9.35,1.45l-9.57-.69c-1.07-.08-1,1.65-.42,1.91s12.53,4.54,12.53,4.54a7.42,7.42,0,0,1-3.82,1c-1.68-.22-4.43-2.57-5.09-1.58s-.58,1.59-.24,1.85a44.11,44.11,0,0,0,5.48,3c1.3.44,14.66-.23,14.66-.23l14,.48Z"/><path class="cls-8" d="M218.27,169.63a41.29,41.29,0,0,1,4.85.13,39.2,39.2,0,0,1,4.84.43,39.23,39.23,0,0,1-4.85-.13A37.35,37.35,0,0,1,218.27,169.63Z"/><path class="cls-6" d="M219.12,169.07s-.14-.27-.37-.76-.59-1.28-1-2.13c-.86-1.92-2-4.46-3.32-7.38h.08l-4.67-.3-11.27-.75-3.41-.25-.93-.08h.93l3.42.19,11.27.69,4.67.31h.06v0l3.26,7.41.93,2.15A4,4,0,0,1,219.12,169.07Z"/><path class="cls-5" d="M297.93,237.36l-13.58,17.08s13.72,18.24,11.52,21.64l-35-23.85,20.07-27.48Z"/><g class="cls-9"><path class="cls-10" d="M274.9,245.19a1.72,1.72,0,0,0-2.13.87,1.67,1.67,0,0,0,.85,2.13,1.83,1.83,0,0,0,2.26-.95,1.73,1.73,0,0,0-1.13-2.11"/></g><g class="cls-9"><path class="cls-10" d="M260.88,252.23l2-2.77,33,24.21a2.94,2.94,0,0,1,0,2.79Z"/></g><path class="cls-6" d="M285,254.67c-.13.16-1-.38-2.23-.45s-2.17.31-2.27.13.85-1,2.32-.84S285.18,254.54,285,254.67Z"/><path class="cls-6" d="M287.51,258.78c-.08.19-1-.06-2.09.23s-1.8.91-2,.78.43-1.15,1.78-1.48S287.62,258.62,287.51,258.78Z"/><path class="cls-6" d="M286.38,264.56c-.17-.08.21-1.08,1.31-1.68s2.14-.38,2.11-.19-.87.32-1.77.83S286.56,264.66,286.38,264.56Z"/><path class="cls-6" d="M287.69,250.43c-.18.1-.77-.69-1.76-1.32S284,248.24,284,248s1.16-.28,2.31.48S287.87,250.36,287.69,250.43Z"/><path class="cls-6" d="M290.37,246.94c-.05.07-.79-.31-1.7-1.27a9,9,0,0,1-1.38-1.87,9.44,9.44,0,0,1-.6-1.24,3,3,0,0,1-.22-.78.92.92,0,0,1,.58-.94,1.12,1.12,0,0,1,1,.16,2.33,2.33,0,0,1,.57.56,7.47,7.47,0,0,1,.79,1.14,7.32,7.32,0,0,1,.82,2.2,3.49,3.49,0,0,1,0,2.12c-.12,0-.12-.8-.48-2a8.54,8.54,0,0,0-.89-2,7.25,7.25,0,0,0-.75-1c-.29-.36-.6-.59-.81-.49s-.1.05-.1.22a1.86,1.86,0,0,0,.16.57,10.31,10.31,0,0,0,.52,1.18,12.33,12.33,0,0,0,1.18,1.85C289.83,246.33,290.44,246.85,290.37,246.94Z"/><path class="cls-6" d="M290,247a3.49,3.49,0,0,1,.77-2,7,7,0,0,1,1.61-1.7,7.28,7.28,0,0,1,1.2-.71,1.76,1.76,0,0,1,1.72-.06,1,1,0,0,1,.37,1,3,3,0,0,1-.29.75,4.57,4.57,0,0,1-.85,1.15,4.83,4.83,0,0,1-2,1.23,2.72,2.72,0,0,1-2.13,0,19.44,19.44,0,0,0,2-.49,4.72,4.72,0,0,0,1.72-1.21,4.09,4.09,0,0,0,.7-1c.21-.41.29-.8.13-.86a1.18,1.18,0,0,0-1,.12,6.19,6.19,0,0,0-1.1.61,7.56,7.56,0,0,0-1.7,1.49C290.36,246.3,290.12,247.06,290,247Z"/><polygon class="cls-7" points="301.58 231.53 297.3 236.89 281.34 225.05 284.25 220.6 301.58 231.53"/></g><g id="freepik--speech-bubble--inject-2"><path class="cls-2" d="M187,101l-13.1-5.17a32.86,32.86,0,1,1,7.56-9h0Z"/><path class="cls-6" d="M187,101c-.34-.92-2-5.28-5.39-14.24l-.08-.2-.15.15h0l.22.16A32.59,32.59,0,0,0,186,70.36a29,29,0,0,0-.46-5.18c-.17-.88-.32-1.78-.52-2.68s-.53-1.78-.81-2.69a33.15,33.15,0,0,0-15.9-18.49,32.62,32.62,0,0,0-13.34-3.72A33.54,33.54,0,0,0,140.51,40a32.34,32.34,0,0,0-12.39,8.92,33,33,0,0,0-7.19,13.79,33.46,33.46,0,0,0-.18,14.9,32.37,32.37,0,0,0,5.85,12.83,33.31,33.31,0,0,0,21.17,12.75,35.42,35.42,0,0,0,10.78-.09A32.66,32.66,0,0,0,174,95.94h-.14l13.15,5-13-5.3h-.07l-.06,0a32.6,32.6,0,0,1-15.33,7,35.14,35.14,0,0,1-10.64,0A33,33,0,0,1,127,90.06a31.8,31.8,0,0,1-5.73-12.63,32.93,32.93,0,0,1,.19-14.65,32.53,32.53,0,0,1,7.07-13.57,31.84,31.84,0,0,1,12.18-8.71,33.06,33.06,0,0,1,14.18-2.4,32.26,32.26,0,0,1,13.13,3.65,32.74,32.74,0,0,1,15.68,18.19l.8,2.65c.21.88.35,1.77.53,2.64a29.29,29.29,0,0,1,.48,5.12,32.59,32.59,0,0,1-4.24,16.37l-.53.94.75-.77h-.23Z"/><path class="cls-5" d="M148.27,66.65h1.85l4-5.71v-3.7s2.86-.2,2.56,4.65.06,3.62.06,3.62,6.09,0,6.6.5.58,6.43.67,9.71a3.54,3.54,0,0,1-2.49,3.6,2.37,2.37,0,0,1-.65.09c-1.52,0-9.29-1.16-9.29-1.16h-3.21Z"/><polygon class="cls-5" points="142.95 65.68 144.19 78.36 147.37 78.33 147.27 65.9 142.95 65.68"/></g><g id="freepik--Plant--inject-2"><path class="cls-5" d="M83.41,358.43a21.57,21.57,0,0,1,13.34-1.62c2.43.4,5,1.13,6.6,2.95s2,5,.07,6.58a6.26,6.26,0,0,1-4.16,1.05c-3.53,0-7.44-.66-10.26,1.46-1.61,1.21-2.68,3.23-4.61,3.82a4.53,4.53,0,0,1-5-2.22,7.83,7.83,0,0,1-.56-5.74A8.76,8.76,0,0,1,83.41,358.43Z"/><path class="cls-5" d="M74.12,340.48c2.48,3.54,7.3,2.37,9.54.21s3.18-5.3,4-8.3c2-6.83,4-14,2.49-21a11.63,11.63,0,0,0-2.68-5.7,6.09,6.09,0,0,0-5.76-1.92c-2.44.65-4,3-5,5.29a50.11,50.11,0,0,0-4.94,21.45c0,3.45.4,7.08,2.35,9.93"/><path class="cls-5" d="M67.29,345.57c2.69-3.2,3.21-7.87,2-11.88a22.88,22.88,0,0,0-7-10.2,37.91,37.91,0,0,0-12.59-7.43,13.37,13.37,0,0,0-5.66-1,6,6,0,0,0-4.78,2.88c-1.33,2.52-.06,5.59,1.32,8.09a96.27,96.27,0,0,0,8.27,12.6c2.48,3.19,5.32,6.34,9.09,7.79s7.71,1.27,9.71-1.35"/><path class="cls-6" d="M73.94,393.94a8,8,0,0,0,.22-1.61c.12-1.17.26-2.64.43-4.39a57,57,0,0,1,1-6.45,48.8,48.8,0,0,1,2.33-7.55,28.49,28.49,0,0,1,3.89-6.88,14.57,14.57,0,0,1,4.91-4.12,14,14,0,0,1,4.14-1.29,7.36,7.36,0,0,0,1.61-.23,7.49,7.49,0,0,0-1.64,0,12.43,12.43,0,0,0-4.31,1.12,14.34,14.34,0,0,0-5.18,4.12,27.32,27.32,0,0,0-4,7A46.19,46.19,0,0,0,75,381.39a55.43,55.43,0,0,0-.89,6.55c-.14,1.87-.19,3.38-.22,4.43A6.88,6.88,0,0,0,73.94,393.94Z"/><path class="cls-6" d="M74.24,390.58a3.14,3.14,0,0,0,0-.75v-2.14c0-1.85,0-4.54.09-7.85.17-6.63.74-13.77,1.84-23.83,1-9.46,2.45-20.47,3.93-27.63.31-1.62.63-3.09.93-4.37s.54-2.4.77-3.29.37-1.53.5-2.08a3.1,3.1,0,0,0,.13-.74,3.46,3.46,0,0,0-.26.7c-.16.54-.37,1.22-.62,2s-.56,2-.88,3.27-.69,2.74-1,4.37a240.3,240.3,0,0,0-4.12,25.7C74.45,364,74,373.2,73.9,379.85c0,3.32,0,6,.12,7.87,0,.87.1,1.58.13,2.14A4.43,4.43,0,0,0,74.24,390.58Z"/><path class="cls-6" d="M74.29,372.88a16.74,16.74,0,0,0,0-2.24c-.08-1.43-.28-3.51-.68-6.05a80.72,80.72,0,0,0-2-8.81,72.57,72.57,0,0,0-3.69-10.43,55.57,55.57,0,0,0-10.8-16.86,28.61,28.61,0,0,0-2.55-2.37c-.39-.33-.74-.66-1.09-.92l-1-.68a13.62,13.62,0,0,0-1.88-1.2,63.11,63.11,0,0,1,6.17,5.5,58.53,58.53,0,0,1,10.55,16.79A84.17,84.17,0,0,1,71,355.94a87.06,87.06,0,0,1,2.09,8.72c.46,2.52.73,4.57.89,6A12.72,12.72,0,0,0,74.29,372.88Z"/><polygon class="cls-6" points="57.17 404.11 58.95 428.41 90.17 428.41 91.95 404.11 57.17 404.11"/><rect class="cls-6" x="54.16" y="394.53" width="41.51" height="9.58"/><polygon class="cls-11" points="54.16 427.48 54.16 430.14 56.11 430.14 94.98 430.14 94.98 427.48 54.16 427.48"/><polygon class="cls-11" points="58.02 434.81 56.11 430.14 93.5 430.14 91.27 434.81 58.02 434.81"/><path class="cls-3" d="M91.36,412.05s0,.08-.14.22a7.49,7.49,0,0,0-.47.62l-1.82,2.33-.08.1-.08-.1L84.31,409h.25l-4.4,6.23-.13.2-.16-.18c-1.62-1.94-3.39-4-5.22-6.21H75l-.28.36L70,415.28l-.15.2-.15-.2c-1.58-2.25-3.06-4.34-4.4-6.23h.26l-5.44,6.18-.1.11-.07-.13-1.7-2.85-.44-.76a.84.84,0,0,1-.13-.27,1.08,1.08,0,0,1,.18.24c.13.19.29.43.48.73l1.79,2.8H60l5.33-6.25.13-.16.13.17,4.44,6.2h-.3l4.65-5.86.29-.36.15-.18.15.18c1.83,2.18,3.59,4.28,5.2,6.22h-.29c1.61-2.24,3.1-4.33,4.45-6.2l.13-.18.12.18,4.38,6.25h-.16l1.89-2.26.51-.59A1,1,0,0,1,91.36,412.05Z"/><path class="cls-11" d="M92.38,403.94c0,.1-7.82.19-17.47.19s-17.48-.09-17.48-.19,7.82-.2,17.48-.2S92.38,403.84,92.38,403.94Z"/><path class="cls-6" d="M94,430.4c0,.11-8.51.19-19,.19s-19-.08-19-.19,8.5-.2,19-.2S94,430.29,94,430.4Z"/></g><path class="cls-6" d="M54.75,288.8a4.39,4.39,0,0,1-2.94.93c-.44,0-1.42,0-2.94-.08H47.54V278h1.23c1.21-.06,2.09-.09,2.62-.09a4.19,4.19,0,0,1,2.68.76,2.61,2.61,0,0,1,1,2.21,2.58,2.58,0,0,1-1.7,2.58v.11a2.73,2.73,0,0,1,2.44,2.87A3,3,0,0,1,54.75,288.8Zm-3.94-9c-.32,0-.59,0-.79,0v3h.68c1.23,0,1.85-.53,1.85-1.59S52,279.82,50.81,279.82Zm.06,4.89H50v3a9.67,9.67,0,0,0,1.18,0q1.92,0,1.92-1.44C53.12,285.24,52.37,284.71,50.87,284.71Z"/><path class="cls-6" d="M63.05,288.59q-1.65,4.25-4.4,5l-1.1-1.91a3.51,3.51,0,0,0,2.88-2H60L58,282.52h2.42l1,4q.09.45.12.72h.14a3.83,3.83,0,0,1,.19-.72l1.41-4h2.2Z"/><path class="cls-6" d="M67.26,284.53l1.41-1.42a5,5,0,0,1,1.38,1.42l-1.38,1.41A4.73,4.73,0,0,0,67.26,284.53Zm0,3.73,1.41-1.41a5.11,5.11,0,0,1,1.38,1.41l-1.38,1.42A4.65,4.65,0,0,0,67.26,288.26Z"/><path class="cls-6" d="M84.34,289.69,83.87,283c0-.13,0-.42,0-.87h-.11a5.63,5.63,0,0,1-.24,1.08l-2.77,6.5H78.26l-2.5-6.5a4.15,4.15,0,0,1-.24-1.08H75.4c0,.45,0,.74,0,.87l-.5,6.71H72.62L73.56,278H76.3l3.06,7.79a2.86,2.86,0,0,1,.22.93h.15a5.23,5.23,0,0,1,.24-.93L83.24,278H86l.91,11.74Z"/><path class="cls-6" d="M93.15,289.68,93,289a3.9,3.9,0,0,1-1.94.65,1.79,1.79,0,0,1-1.37-.54,1.84,1.84,0,0,1-.49-1.34,2.17,2.17,0,0,1,1-1.9l2.69-.26v-.34c0-.61-.34-.92-1-.92a3.05,3.05,0,0,0-1.64.55l-.58-1.6a5.71,5.71,0,0,1,2.87-.8,2.86,2.86,0,0,1,1.85.5,2.25,2.25,0,0,1,.64,1.8l0,2.7a2.82,2.82,0,0,0,.07.75l.3,1ZM91.43,287a1.4,1.4,0,0,0-.06.43c0,.45.21.68.63.68a1.9,1.9,0,0,0,.77-.21l0-1.09Z"/><path class="cls-6" d="M102.11,289.69v-4.05c0-.84-.38-1.26-1.13-1.26a2.07,2.07,0,0,0-1,.28v5H97.76V278H100v5.46a2.39,2.39,0,0,1,1.88-.81c1.65,0,2.47.88,2.47,2.64v4.45Z"/><path class="cls-6" d="M115.39,289.69V285.6c0-.85-.31-1.27-.94-1.27a1.77,1.77,0,0,0-1,.28v5.08h-2.25V285.6c0-.85-.32-1.27-1-1.27a1.87,1.87,0,0,0-1,.28v5.08h-2.25v-7.17h2.22v.81a2.66,2.66,0,0,1,1.82-.81,2.09,2.09,0,0,1,2,1.07,3,3,0,0,1,2.14-1.07c1.59,0,2.38.9,2.38,2.69v4.48Z"/><path class="cls-6" d="M126.32,288.71a3.89,3.89,0,0,1-2.73,1,3.56,3.56,0,0,1-2.51-.92,3.21,3.21,0,0,1-1-2.49,3.67,3.67,0,0,1,1.07-2.75,3.81,3.81,0,0,1,2.74-1,3.62,3.62,0,0,1,2.56.92,3.3,3.3,0,0,1,1,2.52A3.56,3.56,0,0,1,126.32,288.71Zm-2.57-4.44c-.85,0-1.28.6-1.28,1.8s.42,1.82,1.24,1.82,1.29-.6,1.29-1.82S124.59,284.27,123.75,284.27Z"/><path class="cls-6" d="M134.3,289.69l-.09-.76a3.62,3.62,0,0,1-2,.76q-2.34,0-2.34-2.58v-4.59h2.23v4.29a.85.85,0,0,0,.95,1,1.7,1.7,0,0,0,1.12-.46v-4.79h2.23v5.29a10.71,10.71,0,0,0,.21,1.88Z"/><path class="cls-6" d="M143.82,289.69l0-.83a3.25,3.25,0,0,1-2,.83,2.62,2.62,0,0,1-2-.8,3.44,3.44,0,0,1-.87-2.52A3.78,3.78,0,0,1,140,283.5a3.37,3.37,0,0,1,2.42-1,3.5,3.5,0,0,1,1.07.15V278h2.2v9.82a14.13,14.13,0,0,0,.15,1.92Zm-.3-5.24a1.64,1.64,0,0,0-.72-.16c-1,0-1.51.62-1.51,1.87s.43,1.75,1.29,1.75a1.83,1.83,0,0,0,.94-.24Z"/><path class="cls-6" d="M163.73,289.69l-.47-6.71a8.54,8.54,0,0,1,0-.87h-.12a6.83,6.83,0,0,1-.23,1.08l-2.78,6.5h-2.46l-2.5-6.5a4.15,4.15,0,0,1-.24-1.08h-.13a8.54,8.54,0,0,1,0,.87l-.49,6.71H152L153,278h2.74l3.06,7.79a2.86,2.86,0,0,1,.22.93h.15a5.23,5.23,0,0,1,.24-.93l3.27-7.79h2.74l.91,11.74Z"/><path class="cls-6" d="M175,288.65a4.07,4.07,0,0,1-2.93,1,3.58,3.58,0,0,1-2.45-.87,3.33,3.33,0,0,1-1.11-2.63,3.58,3.58,0,0,1,1.08-2.74,3.31,3.31,0,0,1,2.36-.91,2.91,2.91,0,0,1,2.2.81,2.82,2.82,0,0,1,.72,2,6.52,6.52,0,0,1-.06,1.05h-3.93l0,.12c0,.9.55,1.35,1.64,1.35a3,3,0,0,0,1.86-.68Zm-2.2-3.75q0-1-.9-1t-1,1.26h1.89Z"/><path class="cls-6" d="M182.38,289.85a23.57,23.57,0,0,0-2.1-3l-.6.53v2.29h-2.24V278h2.24v7.32l2.68-2.7,2.33.34-2.82,2.54a35.44,35.44,0,0,1,2.9,4Z"/><path class="cls-6" d="M191.6,288.59q-1.65,4.25-4.4,5l-1.1-1.91a3.51,3.51,0,0,0,2.88-2h-.41l-2.08-7.17h2.43l1,4q.09.45.12.72h.13a4.84,4.84,0,0,1,.2-.72l1.41-4H194Z"/></g></g></svg>